<svg xmlns="http://www.w3.org/2000/svg" xmlns:xlink="http://www.w3.org/1999/xlink" width="100.0" height="100.0" viewBox="-71.26361088 42.79848712 4.492992760000007 4.840475760000004" preserveAspectRatio="xMinYMin meet"><g transform="matrix(1,0,0,-1,0,90.43745)"><g><path fill-rule="evenodd" fill="#66cc99" stroke="#555555" stroke-width="0.09680951520000008" opacity="0.6" d="M -67.619761,44.519754 L -67.61541,44.521973 L -67.587738,44.516196 L -67.582113,44.513459 L -67.589259,44.50084 L -67.590627,44.49415 L -67.580288,44.488068 L -67.562651,44.472104 L -67.569189,44.455531 L -67.571774,44.453403 L -67.574206,44.45173 L -67.588346,44.449754 L -67.592755,44.458572 L -67.604919,44.502056 L -67.607199,44.503576 L -67.614954,44.503576 L -67.619211,44.506009 L -67.619761,44.519754 z" /><path fill-rule="evenodd" fill="#66cc99" stroke="#555555" stroke-width="0.09680951520000008" opacity="0.6" d="M -68.498637,44.369686 L -68.478785,44.319563 L -68.489641,44.313705 L -68.515173,44.324797 L -68.523857,44.322397 L -68.533481,44.329958 L -68.530394,44.333583 L -68.528635,44.344605 L -68.520671,44.358357 L -68.52193,44.367591 L -68.518573,44.381022 L -68.512697,44.384799 L -68.50766,44.385219 L -68.501364,44.382281 L -68.498637,44.369686 z" /><path fill-rule="evenodd" fill="#66cc99" stroke="#555555" stroke-width="0.09680951520000008" opacity="0.6" d="M -68.23638,44.266254 L -68.214641,44.263156 L -68.211329,44.257074 L -68.212474,44.255405 L -68.221383,44.257254 L -68.231469,44.256016 L -68.23713,44.25343 L -68.24031,44.251622 L -68.241545,44.247543 L -68.240806,44.239723 L -68.248913,44.235443 L -68.266669,44.234033 L -68.274427,44.237099 L -68.276857,44.240794 L -68.274719,44.258675 L -68.262128,44.260774 L -68.254153,44.257836 L -68.246598,44.257836 L -68.241142,44.260354 L -68.23638,44.266254 z" /><path fill-rule="evenodd" fill="#66cc99" stroke="#555555" stroke-width="0.09680951520000008" opacity="0.6" d="M -68.942826,44.281073 L -68.919301,44.309872 L -68.919325,44.335392 L -68.911634,44.365027 L -68.90353,44.378613 L -68.87894,44.386584 L -68.868444,44.38144 L -68.860649,44.364425 L -68.864338,44.355002 L -68.87169,44.344662 L -68.883065,44.338193 L -68.888706,44.338196 L -68.89285,44.334653 L -68.896587,44.321986 L -68.88746,44.303094 L -68.899445,44.283775 L -68.904255,44.279889 L -68.916872,44.242866 L -68.92648,44.233035 L -68.945976,44.220824 L -68.95189,44.218719 L -68.94709,44.226792 L -68.955332,44.243873 L -68.959468,44.247439 L -68.965896,44.249754 L -68.967074,44.251968 L -68.965264,44.259332 L -68.953686,44.272346 L -68.942826,44.281073 z" /><path fill-rule="evenodd" fill="#66cc99" stroke="#555555" stroke-width="0.09680951520000008" opacity="0.6" d="M -68.792139,44.237819 L -68.769833,44.222787 L -68.769047,44.213351 L -68.780055,44.203129 L -68.789884,44.203915 L -68.801285,44.208633 L -68.809149,44.212565 L -68.815439,44.214137 L -68.822909,44.216496 L -68.829593,44.21689 L -68.837849,44.227112 L -68.839422,44.236547 L -68.833524,44.240872 L -68.827627,44.242838 L -68.825631,44.242556 L -68.792139,44.237819 z" /><path fill-rule="evenodd" fill="#66cc99" stroke="#555555" stroke-width="0.09680951520000008" opacity="0.6" d="M -68.472831,44.219767 L -68.460205,44.212498 L -68.453843,44.201683 L -68.454224,44.199534 L -68.459182,44.197681 L -68.48452,44.202886 L -68.487227,44.209517 L -68.482726,44.227058 L -68.480565,44.228591 L -68.470323,44.22832 L -68.468572,44.223999 L -68.472831,44.219767 z" /><path fill-rule="evenodd" fill="#66cc99" stroke="#555555" stroke-width="0.09680951520000008" opacity="0.6" d="M -68.355279,44.199096 L -68.333227,44.207308 L -68.32423,44.205732 L -68.31606,44.200244 L -68.314789,44.197157 L -68.318476,44.196608 L -68.321178,44.199032 L -68.332639,44.192131 L -68.339029,44.171839 L -68.347416,44.169459 L -68.378872,44.184222 L -68.371235,44.193003 L -68.364469,44.197534 L -68.355279,44.199096 z" /><path fill-rule="evenodd" fill="#66cc99" stroke="#555555" stroke-width="0.09680951520000008" opacity="0.6" d="M -68.680773,44.279242 L -68.675416,44.279753 L -68.668213,44.276511 L -68.658849,44.268588 L -68.623554,44.255622 L -68.611669,44.244818 L -68.605906,44.230772 L -68.580931,44.213432 L -68.564275,44.199155 L -68.563085,44.193207 L -68.567249,44.187258 L -68.577957,44.185473 L -68.599372,44.193207 L -68.612749,44.207722 L -68.624994,44.197637 L -68.625715,44.194756 L -68.619592,44.189354 L -68.618511,44.186472 L -68.618872,44.18107 L -68.643002,44.15766 L -68.652366,44.153698 L -68.670014,44.151537 L -68.671454,44.138572 L -68.675056,44.137131 L -68.681899,44.138212 L -68.686581,44.147216 L -68.692343,44.153698 L -68.700987,44.15838 L -68.709631,44.158741 L -68.713232,44.160541 L -68.716474,44.162702 L -68.720435,44.169185 L -68.718995,44.183231 L -68.715033,44.191154 L -68.714313,44.20376 L -68.721156,44.212404 L -68.722956,44.219607 L -68.722956,44.223568 L -68.718635,44.228611 L -68.711792,44.228971 L -68.700627,44.234013 L -68.694144,44.248779 L -68.680458,44.262105 L -68.677577,44.268948 L -68.677577,44.275431 L -68.680773,44.279242 z" /><path fill-rule="evenodd" fill="#66cc99" stroke="#555555" stroke-width="0.09680951520000008" opacity="0.6" d="M -68.453236,44.189998 L -68.437789,44.188216 L -68.424441,44.190753 L -68.416434,44.187047 L -68.408207,44.176298 L -68.384903,44.154955 L -68.396634,44.14069 L -68.427534,44.119266 L -68.438518,44.11618 L -68.448646,44.125581 L -68.447505,44.133493 L -68.456813,44.145268 L -68.479934,44.1478 L -68.484696,44.146495 L -68.496639,44.146855 L -68.502096,44.152388 L -68.500817,44.160026 L -68.495511,44.162429 L -68.474365,44.181875 L -68.453236,44.189998 z" /><path fill-rule="evenodd" fill="#66cc99" stroke="#555555" stroke-width="0.09680951520000008" opacity="0.6" d="M -68.358388,44.125082 L -68.35301,44.127884 L -68.346724,44.127749 L -68.330716,44.110598 L -68.331032,44.10758 L -68.338012,44.101473 L -68.365176,44.101464 L -68.376593,44.112207 L -68.376591,44.113762 L -68.375382,44.11646 L -68.365514,44.124079 L -68.358388,44.125082 z" /><path fill-rule="evenodd" fill="#66cc99" stroke="#555555" stroke-width="0.09680951520000008" opacity="0.6" d="M -68.499465,44.12419 L -68.492892,44.116921 L -68.491521,44.109833 L -68.502942,44.099722 L -68.51706,44.10341 L -68.518703,44.113222 L -68.511266,44.125082 L -68.506979,44.127237 L -68.499465,44.12419 z" /><path fill-rule="evenodd" fill="#66cc99" stroke="#555555" stroke-width="0.09680951520000008" opacity="0.6" d="M -68.785601,44.053503 L -68.790595,44.053832 L -68.807315,44.035796 L -68.818441,44.032046 L -68.828465,44.032118 L -68.862845,44.025037 L -68.874139,44.025359 L -68.889717,44.032516 L -68.899997,44.06696 L -68.905098,44.077344 L -68.913406,44.08519 L -68.907812,44.105518 L -68.908984,44.110001 L -68.943105,44.10973 L -68.944597,44.11284 L -68.935327,44.13038 L -68.917286,44.148239 L -68.888597,44.15955 L -68.87868,44.166612 L -68.847249,44.183017 L -68.825067,44.186338 L -68.819156,44.180462 L -68.822206,44.178815 L -68.82284,44.173693 L -68.818423,44.160978 L -68.792221,44.145998 L -68.786886,44.143961 L -68.782375,44.14531 L -68.780693,44.143274 L -68.792065,44.136759 L -68.802162,44.137857 L -68.818039,44.136852 L -68.819659,44.135434 L -68.820515,44.130198 L -68.81953,44.122056 L -68.815562,44.115836 L -68.806832,44.116339 L -68.790525,44.09292 L -68.781772,44.084274 L -68.772639,44.078439 L -68.77029,44.069566 L -68.77965,44.057754 L -68.785601,44.053503 z" /><path fill-rule="evenodd" fill="#66cc99" stroke="#555555" stroke-width="0.09680951520000008" opacity="0.6" d="M -68.618212,44.012367 L -68.635315,44.018886 L -68.64736,44.0145 L -68.651863,44.009859 L -68.652881,44.003845 L -68.657031,44.003823 L -68.659972,44.016013 L -68.659874,44.022758 L -68.657369,44.024404 L -68.650767,44.039908 L -68.654783,44.059599 L -68.661594,44.075837 L -68.627893,44.088128 L -68.62535,44.092906 L -68.6181,44.096706 L -68.609722,44.094674 L -68.602863,44.08665 L -68.589563,44.075585 L -68.585916,44.075335 L -68.584074,44.070578 L -68.588098,44.06127 L -68.590792,44.058662 L -68.601099,44.058362 L -68.611473,44.025176 L -68.610703,44.013422 L -68.615896,44.009761 L -68.618212,44.012367 z" /><path fill-rule="evenodd" fill="#66cc99" stroke="#555555" stroke-width="0.09680951520000008" opacity="0.6" d="M -69.043981,44.005684 L -69.047583,44.002283 L -69.052309,43.996324 L -69.05498,43.993858 L -69.064021,43.992009 L -69.069569,43.985022 L -69.0782,43.974132 L -69.092994,43.979063 L -69.096899,43.981324 L -69.093816,43.984611 L -69.08683,43.987077 L -69.077172,43.990159 L -69.068336,43.995502 L -69.061966,44.000023 L -69.058679,44.00331 L -69.058268,44.007625 L -69.062172,44.010297 L -69.066693,44.008653 L -69.071624,44.00742 L -69.07183,44.012557 L -69.061966,44.015023 L -69.047583,44.013995 L -69.043981,44.005684 z" /><path fill-rule="evenodd" fill="#66cc99" stroke="#555555" stroke-width="0.09680951520000008" opacity="0.6" d="M -69.42792,43.928798 L -69.423323,43.922871 L -69.422153,43.917702 L -69.423324,43.915507 L -69.438066,43.909539 L -69.440913,43.909767 L -69.441894,43.916331 L -69.433762,43.949353 L -69.429806,43.948438 L -69.421072,43.938261 L -69.42792,43.928798 z" /><path fill-rule="evenodd" fill="#66cc99" stroke="#555555" stroke-width="0.09680951520000008" opacity="0.6" d="M -68.880242,43.863398 L -68.882554,43.848525 L -68.876224,43.836597 L -68.886725,43.822195 L -68.898319,43.820987 L -68.899108,43.821925 L -68.893537,43.831498 L -68.8947,43.84397 L -68.898045,43.849545 L -68.903957,43.848684 L -68.908222,43.849852 L -68.902618,43.868855 L -68.889367,43.87553 L -68.880242,43.863398 z" /><path fill-rule="evenodd" fill="#66cc99" stroke="#555555" stroke-width="0.09680951520000008" opacity="0.6" d="M -69.307908,43.773767 L -69.306751,43.775095 L -69.302995,43.774591 L -69.300376,43.772144 L -69.300818,43.768599 L -69.314325,43.756707 L -69.322559,43.755883 L -69.323569,43.758994 L -69.321141,43.765763 L -69.313631,43.772762 L -69.307908,43.773767 z" /><path fill-rule="evenodd" fill="#66cc99" stroke="#555555" stroke-width="0.09680951520000008" opacity="0.6" d="M -70.119671,43.748621 L -70.113059,43.74913 L -70.097318,43.757292 L -70.094986,43.753211 L -70.100233,43.742134 L -70.107812,43.734555 L -70.109561,43.730474 L -70.108978,43.722312 L -70.124136,43.70832 L -70.129383,43.70832 L -70.138128,43.718231 L -70.138711,43.727559 L -70.127051,43.742717 L -70.119671,43.748621 z" /><path fill-rule="evenodd" fill="#66cc99" stroke="#555555" stroke-width="0.09680951520000008" opacity="0.6" d="M -70.087621,43.699913 L -70.093704,43.6918 L -70.099594,43.695366 L -70.115908,43.682978 L -70.118291,43.683343 L -70.118174,43.686375 L -70.115961,43.689202 L -70.100683,43.705962 L -70.095727,43.709278 L -70.093113,43.710524 L -70.092137,43.709468 L -70.097184,43.700929 L -70.091929,43.698111 L -70.087621,43.699913 z" /><path fill-rule="evenodd" fill="#66cc99" stroke="#555555" stroke-width="0.09680951520000008" opacity="0.6" d="M -70.163884,43.692404 L -70.156787,43.694706 L -70.146115,43.701635 L -70.135563,43.700658 L -70.154503,43.680933 L -70.168227,43.675136 L -70.170284,43.675441 L -70.173571,43.683734 L -70.171339,43.687546 L -70.163884,43.692404 z" /><path fill-rule="evenodd" fill="#66cc99" stroke="#555555" stroke-width="0.09680951520000008" opacity="0.6" d="M -70.186213,43.682655 L -70.187536,43.678669 L -70.192574,43.673139 L -70.207341,43.662562 L -70.210825,43.661695 L -70.21313,43.662973 L -70.213948,43.666161 L -70.209627,43.676308 L -70.201893,43.685483 L -70.196535,43.688784 L -70.191041,43.689071 L -70.186213,43.682655 z" /><path fill-rule="evenodd" fill="#66cc99" stroke="#555555" stroke-width="0.09680951520000008" opacity="0.6" d="M -70.171245,43.663498 L -70.171136,43.6633 L -70.190323,43.642986 L -70.205934,43.633633 L -70.207165,43.63369 L -70.211062,43.641842 L -70.200116,43.662978 L -70.188047,43.673762 L -70.184659,43.674699 L -70.171245,43.663498 z" /><path fill-rule="evenodd" fill="#66cc99" stroke="#555555" stroke-width="0.09680951520000008" opacity="0.6" d="M -70.703819,43.059825 L -70.704696,43.070989 L -70.705996,43.073089 L -70.708896,43.074989 L -70.720296,43.074688 L -70.733497,43.073288 L -70.737897,43.073488 L -70.741897,43.077388 L -70.756397,43.079988 L -70.757597,43.080888 L -70.762997,43.089488 L -70.766398,43.092688 L -70.767998,43.093588 L -70.779098,43.095887 L -70.78388,43.100867 L -70.793906,43.106712 L -70.808708,43.117065 L -70.82,43.122586 L -70.8268,43.127086 L -70.8281,43.129086 L -70.8293,43.132486 L -70.83,43.138386 L -70.8329,43.143286 L -70.8338,43.146886 L -70.829101,43.157886 L -70.827801,43.166385 L -70.828301,43.168985 L -70.826201,43.172085 L -70.824001,43.173285 L -70.823501,43.174585 L -70.824801,43.179685 L -70.828301,43.186685 L -70.827901,43.188685 L -70.827201,43.189485 L -70.823754,43.191075 L -70.820702,43.191663 L -70.819344,43.193036 L -70.819146,43.195157 L -70.820366,43.197629 L -70.820763,43.19978 L -70.816903,43.214604 L -70.816033,43.21568 L -70.813119,43.217252 L -70.80967,43.224561 L -70.80964,43.225407 L -70.811852,43.228306 L -70.814019,43.229053 L -70.815453,43.229023 L -70.816232,43.234997 L -70.817773,43.237408 L -70.817865,43.237911 L -70.822959,43.240187 L -70.823309,43.240343 L -70.825071,43.24093 L -70.826711,43.241301 L -70.828022,43.241597 L -70.83365,43.242868 L -70.837274,43.242321 L -70.838678,43.242931 L -70.841273,43.248653 L -70.841059,43.249699 L -70.839717,43.250393 L -70.839213,43.251224 L -70.843302,43.254321 L -70.852015,43.256808 L -70.855082,43.255191 L -70.858207,43.256286 L -70.859607,43.257342 L -70.859853,43.259763 L -70.861384,43.263143 L -70.863231,43.265098 L -70.86323,43.265109 L -70.872585,43.270152 L -70.881704,43.272483 L -70.882804,43.273183 L -70.883704,43.277483 L -70.886504,43.282783 L -70.890204,43.284182 L -70.896304,43.285282 L -70.906005,43.291682 L -70.907405,43.293582 L -70.903905,43.296882 L -70.90139,43.298764 L -70.900386,43.301358 L -70.90231,43.304872 L -70.904485,43.30529 L -70.907405,43.304782 L -70.909805,43.306682 L -70.91246,43.308289 L -70.911625,43.309952 L -70.912004,43.319821 L -70.915406,43.319858 L -70.916421,43.320279 L -70.923949,43.324768 L -70.930783,43.329569 L -70.931641,43.331019 L -70.932198,43.33456 L -70.932735,43.33676 L -70.93711,43.337367 L -70.951525,43.334672 L -70.953034,43.333257 L -70.956528,43.334691 L -70.95786,43.337776 L -70.960439,43.341048 L -70.964028,43.341888 L -70.967229,43.343777 L -70.974863,43.357969 L -70.974156,43.362925 L -70.976408,43.367272 L -70.981859,43.373862 L -70.984335,43.376128 L -70.984305,43.376814 L -70.985965,43.380023 L -70.985958,43.38424 L -70.985205,43.386745 L -70.987649,43.389521 L -70.987733,43.391513 L -70.98739,43.393457 L -70.982876,43.394808 L -70.982565,43.39778 L -70.982817,43.399312 L -70.985767,43.40162 L -70.986677,43.403541 L -70.987249,43.411863 L -70.986812,43.414264 L -70.982898,43.419332 L -70.978052,43.421954 L -70.97462,43.423022 L -70.971039,43.425606 L -70.968359,43.429283 L -70.969362,43.432731 L -70.968782,43.434891 L -70.96115,43.438321 L -70.961046,43.440475 L -70.96164,43.443039 L -70.96581,43.447557 L -70.9669,43.450458 L -70.966266,43.453627 L -70.96399,43.456752 L -70.96045,43.466592 L -70.961428,43.469696 L -70.964433,43.473276 L -70.964542,43.473262 L -70.966017,43.472918 L -70.970946,43.4739 L -70.972956,43.47502 L -70.974245,43.47742 L -70.967968,43.480783 L -70.967404,43.482635 L -70.968975,43.483961 L -70.969572,43.486201 L -70.966718,43.491278 L -70.961948,43.49775 L -70.959185,43.499351 L -70.957958,43.508041 L -70.954755,43.509802 L -70.955386,43.511357 L -70.956856,43.512719 L -70.954045,43.518797 L -70.954066,43.52261 L -70.956787,43.524216 L -70.957214,43.524994 L -70.957046,43.528743 L -70.95822,43.531586 L -70.962556,43.53431 L -70.963342,43.535247 L -70.963531,43.536756 L -70.963281,43.538929 L -70.962182,43.541032 L -70.955928,43.541925 L -70.955337,43.54098 L -70.955252,43.540887 L -70.950838,43.551026 L -70.951876,43.552238 L -70.953322,43.552718 L -70.955017,43.554239 L -70.95586,43.559787 L -70.957234,43.561358 L -70.961848,43.562964 L -70.968546,43.568856 L -70.970124,43.568544 L -70.972716,43.570255 L -70.975705,43.625078 L -70.981946,43.70096 L -70.981978,43.701965 L -70.982238,43.711865 L -70.982083,43.715043 L -70.984901,43.752983 L -70.989067,43.79244 L -70.989929,43.839239 L -70.992653,43.89624 L -70.992842,43.916269 L -70.998444,44.041099 L -71.001367,44.092931 L -71.001335,44.093205 L -71.008567,44.245491 L -71.008764,44.258443 L -71.008736,44.258825 L -71.01127,44.301846 L -71.012749,44.340784 L -71.015363,44.378113 L -71.020773,44.473737 L -71.022992,44.500058 L -71.026655,44.558149 L -71.031039,44.655455 L -71.036705,44.736498 L -71.037518,44.755607 L -71.044646,44.845039 L -71.052707,44.93084 L -71.057861,45.000049 L -71.059004,45.004918 L -71.069387,45.144037 L -71.0726,45.180935 L -71.076914,45.246912 L -71.084334,45.305293 L -71.078407,45.306232 L -71.073743,45.307718 L -71.066197,45.311353 L -71.059265,45.313753 L -71.042485,45.313043 L -71.03821,45.311922 L -71.030565,45.312652 L -71.021753,45.314409 L -71.014268,45.316761 L -71.00905,45.319022 L -71.002563,45.327819 L -71.0024,45.328482 L -71.005087,45.331545 L -71.011144,45.334679 L -71.01292,45.343297 L -71.012757,45.34476 L -71.01081,45.34725 L -71.004848,45.345419 L -71.001771,45.343658 L -70.99273,45.338173 L -70.990233,45.336277 L -70.989324,45.334655 L -70.985595,45.332188 L -70.967188,45.332401 L -70.950824,45.33453 L -70.949365,45.331536 L -70.943887,45.324336 L -70.939188,45.320177 L -70.929923,45.318462 L -70.921435,45.313867 L -70.917904,45.311924 L -70.912111,45.296197 L -70.913732,45.292746 L -70.918753,45.287033 L -70.919951,45.284953 L -70.9217,45.279445 L -70.921474,45.278873 L -70.915194,45.274735 L -70.907978,45.269316 L -70.898565,45.258502 L -70.896627,45.253107 L -70.898482,45.244088 L -70.896898,45.242031 L -70.892822,45.239172 L -70.885029,45.234873 L -70.878495,45.23327 L -70.857042,45.22916 L -70.84443,45.234513 L -70.83877,45.237555 L -70.8411,45.238926 L -70.848319,45.244707 L -70.849261,45.256398 L -70.848554,45.263325 L -70.84328,45.265658 L -70.84108,45.267144 L -70.839042,45.269132 L -70.831535,45.279557 L -70.82979,45.286941 L -70.829661,45.290369 L -70.817099,45.297777 L -70.816224,45.29812 L -70.812338,45.302006 L -70.808613,45.311606 L -70.807058,45.322464 L -70.808322,45.325824 L -70.810266,45.327744 L -70.813021,45.328018 L -70.816585,45.330554 L -70.818141,45.332589 L -70.819049,45.335057 L -70.819828,45.340109 L -70.819471,45.341435 L -70.81445,45.356544 L -70.808712,45.362647 L -70.807577,45.363425 L -70.803848,45.364247 L -70.802648,45.364933 L -70.802745,45.366556 L -70.806244,45.376558 L -70.807664,45.378118 L -70.812406,45.383346 L -70.822268,45.390522 L -70.824053,45.391094 L -70.825156,45.393265 L -70.826033,45.398408 L -70.825612,45.400305 L -70.812797,45.411369 L -70.802216,45.417975 L -70.798677,45.424146 L -70.798028,45.426706 L -70.795009,45.428145 L -70.781471,45.431159 L -70.755567,45.428361 L -70.753977,45.427789 L -70.744077,45.421091 L -70.744787,45.417182 L -70.743775,45.411925 L -70.729972,45.399359 L -70.722734,45.39527 L -70.712286,45.390611 L -70.692497,45.392579 L -70.687307,45.393243 L -70.684614,45.395071 L -70.683543,45.395208 L -70.677995,45.394362 L -70.66116,45.386039 L -70.660775,45.378176 L -70.660029,45.377901 L -70.651175,45.377123 L -70.645952,45.378675 L -70.634661,45.383608 L -70.631354,45.41634 L -70.635498,45.427817 L -70.649739,45.442771 L -70.662954,45.446546 L -70.674903,45.452399 L -70.681074,45.45841 L -70.691762,45.471233 L -70.70463,45.479575 L -70.707945,45.480877 L -70.717047,45.487732 L -70.723167,45.507606 L -70.723396,45.510394 L -70.722845,45.512772 L -70.721611,45.515058 L -70.716606,45.518488 L -70.702433,45.529554 L -70.700613,45.531543 L -70.687605,45.549099 L -70.688214,45.563981 L -70.685686,45.565419 L -70.678462,45.570677 L -70.659286,45.58688 L -70.649578,45.598147 L -70.650424,45.599267 L -70.644687,45.607083 L -70.635306,45.610211 L -70.617198,45.616379 L -70.606193,45.626386 L -70.601275,45.627165 L -70.592252,45.629865 L -70.591275,45.630551 L -70.564789,45.65515 L -70.562019,45.660591 L -70.563747,45.661939 L -70.563779,45.662693 L -70.5584,45.666671 L -70.552793,45.667836 L -70.541415,45.666715 L -70.525831,45.666551 L -70.519537,45.670001 L -70.51947,45.671738 L -70.518948,45.672286 L -70.510171,45.679323 L -70.496603,45.687021 L -70.469869,45.701639 L -70.451503,45.704432 L -70.446903,45.704044 L -70.438878,45.704387 L -70.430787,45.707222 L -70.400404,45.719834 L -70.390379,45.728539 L -70.383552,45.734869 L -70.388501,45.749717 L -70.396133,45.756255 L -70.401749,45.75788 L -70.406548,45.761813 L -70.415684,45.786158 L -70.417641,45.79377 L -70.417674,45.79457 L -70.416922,45.795279 L -70.408,45.797586 L -70.406334,45.797494 L -70.404275,45.796259 L -70.401857,45.795915 L -70.399634,45.796235 L -70.395907,45.798885 L -70.396362,45.802703 L -70.398159,45.80412 L -70.39662,45.808486 L -70.387916,45.819043 L -70.380752,45.824639 L -70.36702,45.834993 L -70.34244,45.852192 L -70.329748,45.853795 L -70.317154,45.856448 L -70.306162,45.85974 L -70.284204,45.872034 L -70.262655,45.887853 L -70.259117,45.890755 L -70.253704,45.902981 L -70.253897,45.906524 L -70.25788,45.918138 L -70.261055,45.920311 L -70.262824,45.919832 L -70.263315,45.920152 L -70.263313,45.923832 L -70.262198,45.925203 L -70.252526,45.933176 L -70.24092,45.939095 L -70.240162,45.940944 L -70.240177,45.943729 L -70.252963,45.955234 L -70.26541,45.962692 L -70.274325,45.964295 L -70.280814,45.965211 L -70.289632,45.963201 L -70.31297,45.961856 L -70.31628,45.963113 L -70.316936,45.963456 L -70.31687,45.96389 L -70.312055,45.971544 L -70.309725,45.98021 L -70.307463,45.982541 L -70.301298,45.985353 L -70.295986,45.985969 L -70.287754,45.99182 L -70.284571,45.995384 L -70.284932,45.995613 L -70.292868,45.997397 L -70.303034,45.998976 L -70.303625,45.999479 L -70.317629,46.01908 L -70.317596,46.019492 L -70.293639,46.041845 L -70.27965,46.052196 L -70.278334,46.057019 L -70.278169,46.059671 L -70.27889,46.060654 L -70.284176,46.062758 L -70.287295,46.062576 L -70.292845,46.060679 L -70.306734,46.061344 L -70.308967,46.062464 L -70.310609,46.064544 L -70.28978,46.094325 L -70.284554,46.098713 L -70.272689,46.102298 L -70.266349,46.100993 L -70.254021,46.0996 L -70.252413,46.100625 L -70.252411,46.106221 L -70.255038,46.108348 L -70.255069,46.1102 L -70.251282,46.117947 L -70.243629,46.128794 L -70.239566,46.142762 L -70.237947,46.147378 L -70.240264,46.150076 L -70.26626,46.16935 L -70.271192,46.172072 L -70.273594,46.172485 L -70.278034,46.175001 L -70.290896,46.185838 L -70.292736,46.191599 L -70.285526,46.196991 L -70.272054,46.209833 L -70.260645,46.231452 L -70.258599,46.235588 L -70.255492,46.246444 L -70.254591,46.254231 L -70.252906,46.259075 L -70.248421,46.267072 L -70.232682,46.284428 L -70.214423,46.295314 L -70.205719,46.299865 L -70.203119,46.31438 L -70.204373,46.316505 L -70.207046,46.319247 L -70.208733,46.328961 L -70.207415,46.331316 L -70.191412,46.348072 L -70.188739,46.349993 L -70.174709,46.358472 L -70.171969,46.359294 L -70.161337,46.360984 L -70.148529,46.358923 L -70.141164,46.362669 L -70.133367,46.368906 L -70.129734,46.369384 L -70.127552,46.371943 L -70.127542,46.378747 L -70.125459,46.381352 L -70.118597,46.384233 L -70.11044,46.38611 L -70.100177,46.398435 L -70.100607,46.399303 L -70.100413,46.405017 L -70.096286,46.40943 L -70.089248,46.410666 L -70.080292,46.410531 L -70.076128,46.409389 L -70.057061,46.415036 L -70.056433,46.415561 L -70.056433,46.41659 L -70.026521,46.557217 L -70.019747,46.592166 L -69.997086,46.69523 L -69.994248,46.698564 L -69.95,46.742523 L -69.943121,46.750034 L -69.874513,46.818027 L -69.818552,46.87503 L -69.566383,47.125032 L -69.439198,47.250033 L -69.22442,47.459686 L -69.219996,47.457159 L -69.203886,47.452203 L -69.181951,47.45561 L -69.178412,47.456615 L -69.164362,47.451037 L -69.156074,47.451035 L -69.146439,47.44886 L -69.122404,47.441881 L -69.108215,47.435831 L -69.098511,47.431217 L -69.097364,47.430326 L -69.096756,47.427013 L -69.082508,47.423976 L -69.080656,47.424068 L -69.066715,47.43024 L -69.061192,47.433052 L -69.055465,47.432274 L -69.043947,47.427634 L -69.042702,47.426651 L -69.039301,47.42217 L -69.036882,47.407977 L -69.039138,47.404068 L -69.042371,47.401143 L -69.042002,47.399269 L -69.04079,47.39808 L -69.041733,47.397326 L -69.043248,47.397189 L -69.045403,47.39191 L -69.044259,47.389259 L -69.04288,47.387841 L -69.039818,47.386309 L -69.03928,47.385052 L -69.043958,47.383682 L -69.046448,47.383934 L -69.053885,47.377878 L -69.053284,47.327568 L -69.054628,47.315911 L -69.049118,47.306471 L -69.051337,47.299774 L -69.052614,47.298289 L -69.052748,47.294403 L -69.052278,47.293078 L -69.050699,47.292552 L -69.050094,47.2915 L -69.04939,47.284689 L -69.050465,47.280575 L -69.049593,47.276804 L -69.047846,47.274243 L -69.047076,47.267089 L -69.048083,47.263044 L -69.049326,47.262107 L -69.050367,47.259821 L -69.050737,47.25733 L -69.050334,47.256621 L -69.0402,47.2451 L -69.033456,47.240984 L -69.030067,47.240549 L -69.023826,47.238353 L -69.004102,47.230162 L -68.992641,47.224564 L -68.981096,47.219884 L -68.975089,47.216687 L -68.972169,47.21431 L -68.966433,47.212712 L -68.96113,47.205582 L -68.958414,47.205491 L -68.95335,47.206749 L -68.952511,47.206087 L -68.951769,47.20292 L -68.950397,47.202476 L -68.948923,47.202819 L -68.942484,47.206386 L -68.93571,47.202249 L -68.929808,47.197266 L -68.92793,47.196969 L -68.926421,47.19786 L -68.924645,47.197791 L -68.920253,47.195048 L -68.919752,47.189859 L -68.916869,47.189333 L -68.909729,47.186292 L -68.90524,47.180919 L -68.902425,47.178839 L -68.900985,47.178519 L -68.89877,47.181353 L -68.895685,47.182883 L -68.893204,47.182974 L -68.890154,47.182241 L -68.88241,47.183357 L -68.877914,47.186601 L -68.874487,47.188405 L -68.871096,47.189252 L -68.862848,47.18953 L -68.857519,47.19095 L -68.85343,47.193443 L -68.848505,47.197558 L -68.83097,47.204945 L -68.812157,47.215461 L -68.803537,47.216033 L -68.780557,47.221605 L -68.769721,47.22135 L -68.764487,47.222331 L -68.752104,47.226645 L -68.745241,47.23108 L -68.73538,47.235793 L -68.717867,47.240919 L -68.713638,47.240989 L -68.710919,47.240327 L -68.70857,47.238705 L -68.705314,47.238066 L -68.693434,47.243072 L -68.690414,47.243987 L -68.687662,47.244215 L -68.675913,47.242626 L -68.664071,47.236762 L -68.661957,47.236327 L -68.658467,47.237149 L -68.653902,47.239479 L -68.648029,47.239706 L -68.639,47.241394 L -68.624964,47.242392 L -68.619749,47.243218 L -68.607906,47.247497 L -68.604819,47.249418 L -68.595427,47.257698 L -68.594085,47.259275 L -68.594053,47.261218 L -68.595028,47.263161 L -68.598657,47.267868 L -68.598726,47.269879 L -68.59688,47.271731 L -68.592516,47.274726 L -68.590605,47.280052 L -68.588725,47.281721 L -68.582984,47.285493 L -68.578551,47.287551 L -68.571094,47.287049 L -68.560378,47.28369 L -68.553896,47.28225 L -68.551747,47.282226 L -68.546641,47.28298 L -68.539587,47.285173 L -68.52907,47.292644 L -68.523492,47.294768 L -68.517982,47.296092 L -68.507432,47.296636 L -68.504006,47.296337 L -68.496719,47.294462 L -68.491075,47.294099 L -68.486742,47.29465 L -68.478983,47.296893 L -68.474851,47.297534 L -68.470282,47.296804 L -68.46628,47.294873 L -68.463964,47.29228 L -68.460064,47.286065 L -68.45825,47.284625 L -68.448844,47.282547 L -68.443235,47.283484 L -68.432555,47.28193 L -68.428861,47.281954 L -68.425233,47.283188 L -68.415861,47.287803 L -68.41314,47.288488 L -68.389863,47.286652 L -68.383146,47.286672 L -68.378678,47.287561 L -68.376829,47.28852 L -68.375848,47.290065 L -68.375615,47.292268 L -68.376319,47.294257 L -68.376955,47.295628 L -68.378667,47.297412 L -68.384105,47.301506 L -68.384943,47.302923 L -68.384706,47.305094 L -68.381746,47.307813 L -68.381308,47.309161 L -68.384622,47.322303 L -68.384281,47.326943 L -68.380334,47.340242 L -68.378616,47.343144 L -68.374487,47.347508 L -68.370265,47.351052 L -68.365728,47.353797 L -68.361559,47.355605 L -68.355171,47.35707 L -68.336236,47.359795 L -68.329879,47.36023 L -68.323186,47.359888 L -68.309933,47.356233 L -68.303778,47.355524 L -68.300718,47.356095 L -68.292679,47.359476 L -68.289315,47.360207 L -68.284101,47.360389 L -68.278284,47.358604 L -68.272501,47.354923 L -68.26971,47.353733 L -68.265138,47.352543 L -68.247987,47.352514 L -68.240168,47.354217 L -68.234604,47.355035 L -68.227607,47.353049 L -68.224646,47.350787 L -68.224174,47.349827 L -68.224139,47.346696 L -68.222893,47.344526 L -68.217712,47.340847 L -68.214551,47.339637 L -68.211222,47.339112 L -68.204263,47.33973 L -68.202346,47.33941 L -68.176055,47.32924 L -68.161333,47.327752 L -68.15515,47.32542 L -68.15357,47.324162 L -68.152462,47.321534 L -68.153509,47.314038 L -68.153275,47.311729 L -68.152302,47.309878 L -68.145452,47.304093 L -68.137059,47.296068 L -68.128226,47.29419 L -68.125407,47.292155 L -68.121463,47.288272 L -68.119682,47.28729 L -68.092501,47.276696 L -68.082896,47.271921 L -68.080175,47.26991 L -68.077521,47.266666 L -68.076009,47.262095 L -68.074061,47.259764 L -68.061842,47.256451 L -68.037335,47.245678 L -68.033916,47.24364 L -68.019724,47.238036 L -68.016103,47.234446 L -68.006314,47.226444 L -67.998171,47.217842 L -67.991871,47.212042 L -67.990171,47.211042 L -67.986071,47.209342 L -67.97137,47.207142 L -67.96907,47.206342 L -67.96347,47.202842 L -67.955669,47.199542 L -67.952269,47.196142 L -67.951269,47.192442 L -67.950569,47.185142 L -67.949369,47.182542 L -67.944669,47.177042 L -67.943069,47.176142 L -67.939168,47.171442 L -67.935868,47.164843 L -67.925768,47.154243 L -67.919767,47.151243 L -67.910367,47.148143 L -67.903366,47.137643 L -67.901166,47.135143 L -67.893266,47.129943 L -67.892166,47.128643 L -67.890026,47.124678 L -67.889155,47.118772 L -67.889193,47.113401 L -67.888658,47.111664 L -67.88565,47.10732 L -67.883844,47.105834 L -67.881302,47.103913 L -67.878124,47.102426 L -67.870367,47.100896 L -67.864574,47.099207 L -67.849008,47.093455 L -67.83689,47.087036 L -67.832373,47.085551 L -67.823304,47.084318 L -67.820828,47.083518 L -67.816345,47.081188 L -67.810716,47.07609 L -67.804512,47.07339 L -67.794446,47.069871 L -67.790515,47.067921 L -67.789761,47.065744 L -67.789461,47.062544 L -67.78966,47.040544 L -67.78896,47.025844 L -67.78956,47.015444 L -67.78926,47.003644 L -67.789766,47.000044 L -67.78923,46.880993 L -67.789799,46.794868 L -67.78938,46.765528 L -67.789284,46.758219 L -67.788406,46.601795 L -67.784509,46.437576 L -67.782114,46.279381 L -67.780438,46.038452 L -67.780462,46.004447 L -67.781378,45.963948 L -67.781095,45.943032 L -67.779984,45.938163 L -67.777626,45.934207 L -67.776873,45.93407 L -67.774907,45.935007 L -67.773564,45.934823 L -67.75752,45.925926 L -67.750422,45.917898 L -67.751866,45.914973 L -67.755701,45.911684 L -67.759665,45.909925 L -67.763725,45.91043 L -67.765002,45.909791 L -67.768709,45.901997 L -67.767827,45.898568 L -67.768745,45.897951 L -67.779157,45.89512 L -67.783314,45.895167 L -67.785344,45.895648 L -67.803318,45.883718 L -67.803908,45.882895 L -67.804724,45.874043 L -67.803678,45.869379 L -67.796514,45.859961 L -67.78968,45.851754 L -67.783108,45.846517 L -67.777975,45.843704 L -67.772056,45.841348 L -67.769179,45.839335 L -67.76503,45.83403 L -67.763955,45.829983 L -67.762812,45.82852 L -67.755068,45.82367 L -67.763767,45.820315 L -67.765534,45.818807 L -67.766842,45.818533 L -67.772758,45.81938 L -67.77763,45.819222 L -67.780082,45.818194 L -67.780507,45.817622 L -67.780443,45.816206 L -67.801989,45.803546 L -67.806598,45.794723 L -67.803626,45.781624 L -67.805457,45.76976 L -67.809083,45.767497 L -67.806308,45.755405 L -67.793083,45.750559 L -67.781892,45.731189 L -67.809833,45.729274 L -67.803148,45.696127 L -67.817892,45.693705 L -67.803313,45.677886 L -67.768648,45.677581 L -67.754245,45.667791 L -67.73035,45.663239 L -67.720401,45.662522 L -67.719651,45.662819 L -67.71799,45.665243 L -67.718056,45.667986 L -67.7236,45.670384 L -67.730845,45.678223 L -67.73372,45.684233 L -67.734605,45.688987 L -67.729908,45.689012 L -67.727648,45.688468 L -67.710464,45.679372 L -67.706092,45.673635 L -67.69797,45.659738 L -67.692623,45.650366 L -67.675417,45.630959 L -67.666456,45.624461 L -67.64581,45.613597 L -67.640238,45.616178 L -67.644206,45.62322 L -67.639741,45.624771 L -67.631762,45.621409 L -67.606172,45.606533 L -67.583341,45.602493 L -67.561359,45.594906 L -67.556931,45.595066 L -67.556345,45.59726 L -67.54612,45.598059 L -67.534919,45.595428 L -67.51858,45.587925 L -67.499444,45.587014 L -67.490923,45.591488 L -67.488452,45.594643 L -67.489018,45.596944 L -67.491061,45.598917 L -67.489793,45.60118 L -67.476704,45.604157 L -67.455406,45.604665 L -67.449674,45.60286 L -67.429716,45.583773 L -67.425452,45.579086 L -67.423646,45.572153 L -67.420976,45.550029 L -67.425399,45.540795 L -67.428338,45.540626 L -67.429057,45.541207 L -67.43067,45.54139 L -67.432236,45.541023 L -67.434559,45.535912 L -67.435275,45.530781 L -67.435044,45.528783 L -67.432207,45.519996 L -67.420543,45.511113 L -67.416416,45.503515 L -67.416462,45.502147 L -67.417417,45.501985 L -67.420966,45.505054 L -67.422649,45.505863 L -67.424242,45.505907 L -67.425674,45.502917 L -67.427713,45.501336 L -67.429681,45.501592 L -67.449968,45.504933 L -67.462882,45.508691 L -67.470416,45.505307 L -67.47091,45.504279 L -67.470732,45.500067 L -67.476855,45.49724 L -67.488001,45.493762 L -67.499445,45.491013 L -67.503088,45.489688 L -67.503771,45.488522 L -67.503157,45.485367 L -67.499767,45.47805 L -67.494351,45.473048 L -67.486907,45.468024 L -67.482353,45.460825 L -67.481929,45.458288 L -67.484851,45.456001 L -67.484328,45.451955 L -67.4772,45.43159 L -67.473366,45.425328 L -67.471255,45.423477 L -67.458495,45.41596 L -67.448106,45.407823 L -67.430001,45.392965 L -67.418747,45.37726 L -67.419007,45.376026 L -67.421501,45.374078 L -67.423773,45.373461 L -67.427243,45.37369 L -67.430097,45.371862 L -67.431232,45.370787 L -67.434281,45.365438 L -67.433536,45.361324 L -67.427797,45.355471 L -67.430489,45.348751 L -67.434996,45.340133 L -67.442029,45.334601 L -67.453469,45.328246 L -67.456288,45.32644 L -67.456676,45.32564 L -67.456384,45.323925 L -67.452268,45.319628 L -67.452267,45.316839 L -67.453336,45.314256 L -67.460554,45.300379 L -67.465833,45.297223 L -67.466091,45.29416 L -67.466479,45.293817 L -67.47969,45.289767 L -67.482315,45.291412 L -67.484258,45.291868 L -67.485683,45.291433 L -67.486524,45.290633 L -67.489464,45.282653 L -67.489333,45.281282 L -67.46357,45.244097 L -67.462081,45.242748 L -67.460236,45.241926 L -67.453473,45.241127 L -67.43998,45.227047 L -67.437101,45.222658 L -67.43141,45.210039 L -67.429083,45.199066 L -67.428889,45.193213 L -67.407139,45.179425 L -67.404658,45.166944 L -67.40537,45.164864 L -67.40537,45.162852 L -67.404629,45.159926 L -67.390579,45.154114 L -67.383635,45.152259 L -67.357117,45.131782 L -67.353434,45.129475 L -67.345585,45.126392 L -67.340806,45.125435 L -67.339869,45.125594 L -67.329829,45.131654 L -67.318462,45.139403 L -67.305472,45.144826 L -67.298209,45.146672 L -67.296174,45.147952 L -67.294881,45.149666 L -67.294363,45.153506 L -67.296979,45.155267 L -67.301729,45.157119 L -67.302568,45.161348 L -67.299238,45.168937 L -67.29591,45.1704 L -67.291417,45.17145 L -67.291707,45.174491 L -67.293484,45.176114 L -67.293742,45.177966 L -67.290603,45.187589 L -67.289794,45.188663 L -67.283619,45.192022 L -67.271076,45.191081 L -67.261542,45.187785 L -67.257795,45.185132 L -67.246697,45.180765 L -67.244012,45.178274 L -67.242293,45.17224 L -67.240643,45.171167 L -67.233047,45.168587 L -67.230201,45.165549 L -67.227324,45.163652 L -67.223156,45.1637 L -67.203933,45.171407 L -67.191167,45.165876 L -67.16787,45.164595 L -67.161247,45.162879 L -67.159406,45.162193 L -67.157919,45.161004 L -67.145652,45.146667 L -67.128935,45.132168 L -67.112414,45.112323 L -67.094735,45.075458 L -67.090786,45.068721 L -67.105899,45.065786 L -67.117688,45.05673 L -67.099749,45.04501 L -67.082074,45.029608 L -67.074914,45.019254 L -67.072753,45.008329 L -67.068274,45.001014 L -67.05461,44.986764 L -67.038299,44.945433 L -67.033474,44.939923 L -67.002118,44.918836 L -66.990937,44.917835 L -66.984466,44.912557 L -66.983558,44.903277 L -66.985901,44.89715 L -66.989235,44.89648 L -66.990351,44.882551 L -66.981008,44.862813 L -66.978142,44.856963 L -66.99296,44.849181 L -66.996523,44.844654 L -66.986318,44.820657 L -66.975009,44.815495 L -66.966468,44.819063 L -66.952112,44.82007 L -66.949895,44.817419 L -66.950569,44.814539 L -66.961068,44.807269 L -66.970026,44.805713 L -66.97626,44.808315 L -66.979708,44.80736 L -66.989351,44.79878 L -66.995154,44.791073 L -67.01995,44.771427 L -67.02615,44.768199 L -67.04335,44.765071 L -67.05516,44.771442 L -67.062239,44.769543 L -67.063308,44.758238 L -67.073439,44.741957 L -67.083477,44.739899 L -67.092542,44.742693 L -67.098931,44.741311 L -67.103957,44.717444 L -67.128792,44.695421 L -67.139209,44.693849 L -67.148061,44.684114 L -67.155119,44.66944 L -67.154479,44.668114 L -67.169857,44.662105 L -67.181785,44.663699 L -67.186612,44.66265 L -67.192068,44.655515 L -67.191438,44.64775 L -67.189427,44.645533 L -67.213025,44.63922 L -67.234275,44.637201 L -67.24726,44.641664 L -67.251247,44.640825 L -67.274122,44.626345 L -67.27706,44.61795 L -67.273076,44.610873 L -67.27916,44.606782 L -67.293403,44.599265 L -67.302427,44.597323 L -67.314938,44.598215 L -67.32297,44.609394 L -67.322491,44.612458 L -67.310745,44.613212 L -67.293665,44.634316 L -67.292462,44.648455 L -67.298449,44.654377 L -67.309627,44.659316 L -67.326182,44.656715 L -67.327557,44.667026 L -67.322058,44.6739 L -67.309302,44.665344 L -67.307909,44.691295 L -67.300144,44.696752 L -67.299176,44.705705 L -67.308538,44.707454 L -67.347782,44.69948 L -67.355966,44.69906 L -67.376742,44.681852 L -67.381149,44.66947 L -67.37905,44.665483 L -67.374014,44.662965 L -67.367298,44.652472 L -67.363158,44.631825 L -67.368269,44.624672 L -67.377554,44.619757 L -67.386605,44.626974 L -67.388704,44.626554 L -67.395839,44.612914 L -67.398987,44.602631 L -67.405492,44.594236 L -67.411815,44.596954 L -67.418923,44.60347 L -67.420602,44.607877 L -67.428367,44.609136 L -67.443686,44.605779 L -67.447464,44.60326 L -67.448513,44.600322 L -67.457747,44.598014 L -67.492373,44.61795 L -67.493632,44.628863 L -67.505804,44.636837 L -67.522802,44.63306 L -67.524061,44.626554 L -67.530777,44.621938 L -67.533925,44.621518 L -67.54022,44.626345 L -67.543368,44.626554 L -67.551133,44.621938 L -67.552392,44.619629 L -67.575056,44.560659 L -67.569836,44.556788 L -67.562321,44.539435 L -67.568159,44.531117 L -67.648506,44.525403 L -67.653123,44.525823 L -67.656901,44.535896 L -67.660678,44.537575 L -67.685861,44.537155 L -67.696354,44.533798 L -67.702649,44.527922 L -67.698872,44.51575 L -67.703489,44.504837 L -67.71419,44.495238 L -67.722876,44.498524 L -67.733986,44.496252 L -67.743353,44.497418 L -67.742789,44.506176 L -67.740076,44.508944 L -67.742942,44.526453 L -67.753854,44.543661 L -67.758891,44.546599 L -67.767285,44.548278 L -67.774001,44.547438 L -67.779457,44.543661 L -67.781975,44.534008 L -67.781556,44.520577 L -67.79726,44.520685 L -67.802541,44.523934 L -67.805479,44.52981 L -67.805479,44.536946 L -67.808837,44.544081 L -67.829823,44.557512 L -67.839896,44.558771 L -67.844513,44.556252 L -67.845772,44.551636 L -67.843254,44.542822 L -67.856684,44.523934 L -67.853746,44.497492 L -67.851228,44.492456 L -67.851648,44.484901 L -67.855579,44.478676 L -67.860994,44.477576 L -67.866801,44.471812 L -67.868774,44.465272 L -67.868875,44.456881 L -67.851764,44.428695 L -67.851697,44.424282 L -67.855108,44.419434 L -67.868856,44.424672 L -67.878509,44.435585 L -67.887323,44.433066 L -67.887323,44.426351 L -67.892033,44.409668 L -67.899571,44.394078 L -67.911667,44.419216 L -67.913346,44.430128 L -67.92132,44.433066 L -67.926357,44.431807 L -67.930554,44.428869 L -67.927616,44.421314 L -67.931453,44.411848 L -67.936531,44.411187 L -67.947342,44.415858 L -67.955737,44.416278 L -67.961613,44.4125 L -67.961613,44.39907 L -67.978876,44.387034 L -67.985668,44.386917 L -67.997288,44.399909 L -68.000646,44.406624 L -68.006102,44.409562 L -68.010719,44.407464 L -68.019533,44.396971 L -68.01399,44.390255 L -68.034223,44.360456 L -68.039679,44.360876 L -68.044296,44.357938 L -68.044716,44.351222 L -68.043037,44.343667 L -68.049334,44.33073 L -68.060356,44.331988 L -68.067047,44.335692 L -68.076066,44.347925 L -68.077873,44.373047 L -68.086268,44.376405 L -68.090045,44.371369 L -68.092983,44.370949 L -68.103818,44.385111 L -68.11229,44.401588 L -68.11271,44.421314 L -68.116487,44.429289 L -68.119845,44.445658 L -68.119425,44.459508 L -68.115228,44.467903 L -68.117746,44.475038 L -68.123203,44.478815 L -68.150904,44.482383 L -68.159298,44.479445 L -68.162656,44.477346 L -68.163075,44.473149 L -68.17105,44.470211 L -68.194554,44.47189 L -68.189517,44.478605 L -68.189937,44.484901 L -68.192036,44.487419 L -68.213861,44.492456 L -68.223934,44.487 L -68.227292,44.479865 L -68.224354,44.464335 L -68.22939,44.463496 L -68.2445,44.471051 L -68.252474,44.483222 L -68.261708,44.484062 L -68.268004,44.47147 L -68.270522,44.459718 L -68.281015,44.451324 L -68.298223,44.449225 L -68.299063,44.437893 L -68.294865,44.432857 L -68.268423,44.440411 L -68.247438,44.433276 L -68.2445,44.429919 L -68.24366,44.420685 L -68.249956,44.417747 L -68.249956,44.414809 L -68.21554,44.390466 L -68.209664,44.392984 L -68.20354,44.392365 L -68.196937,44.386352 L -68.184532,44.369145 L -68.174687,44.343604 L -68.173608,44.328397 L -68.191924,44.306675 L -68.233435,44.288578 L -68.275139,44.288895 L -68.289409,44.283858 L -68.298223,44.276303 L -68.298643,44.26665 L -68.297641,44.263035 L -68.295265,44.261722 L -68.290818,44.247673 L -68.317588,44.225101 L -68.339498,44.222893 L -68.343132,44.229505 L -68.365364,44.237871 L -68.369759,44.243311 L -68.377982,44.247563 L -68.389848,44.247066 L -68.401268,44.252244 L -68.41965,44.274612 L -68.421302,44.284468 L -68.426107,44.295102 L -68.430946,44.298624 L -68.430853,44.312609 L -68.411965,44.322262 L -68.409027,44.32562 L -68.409867,44.329397 L -68.421619,44.336113 L -68.421471,44.337754 L -68.409867,44.356259 L -68.406089,44.356679 L -68.396552,44.363941 L -68.395516,44.369561 L -68.398035,44.376191 L -68.367565,44.39071 L -68.36372,44.388935 L -68.360318,44.389674 L -68.3581,44.392337 L -68.359082,44.402847 L -68.372445,44.42369 L -68.3791,44.430049 L -68.387678,44.430936 L -68.390932,44.427387 L -68.392559,44.41807 L -68.416412,44.397973 L -68.421783,44.396411 L -68.427874,44.3968 L -68.433901,44.401534 L -68.432556,44.426594 L -68.429648,44.439136 L -68.439281,44.448043 L -68.448006,44.449497 L -68.455095,44.447498 L -68.460003,44.443317 L -68.46382,44.436592 L -68.458849,44.412141 L -68.464106,44.398078 L -68.464262,44.391081 L -68.461072,44.385639 L -68.461072,44.378504 L -68.466109,44.377245 L -68.47828,44.378084 L -68.483317,44.388157 L -68.480798,44.397391 L -68.472824,44.404106 L -68.480379,44.432647 L -68.485415,44.434326 L -68.494649,44.429709 L -68.499686,44.414179 L -68.505562,44.411661 L -68.51452,44.41334 L -68.529905,44.39907 L -68.534522,44.397811 L -68.555088,44.403687 L -68.560964,44.402847 L -68.565161,44.39907 L -68.56642,44.394453 L -68.564741,44.385219 L -68.559285,44.374307 L -68.550051,44.371788 L -68.545434,44.355 L -68.553873,44.346256 L -68.563209,44.333039 L -68.566936,44.317603 L -68.566203,44.313007 L -68.564005,44.308022 L -68.556236,44.300819 L -68.538595,44.299902 L -68.530731,44.301774 L -68.527528,44.295248 L -68.532266,44.28634 L -68.528611,44.276117 L -68.519516,44.265046 L -68.519819,44.260209 L -68.529802,44.249594 L -68.528153,44.241263 L -68.52348,44.235819 L -68.525302,44.227554 L -68.534595,44.229331 L -68.550802,44.236534 L -68.551162,44.238335 L -68.562687,44.248059 L -68.572772,44.252741 L -68.603385,44.27471 L -68.61563,44.275431 L -68.626075,44.280473 L -68.627515,44.284435 L -68.630036,44.286235 L -68.682979,44.299201 L -68.725657,44.321591 L -68.733004,44.328388 L -68.746164,44.331148 L -68.762021,44.329597 L -68.766197,44.327015 L -68.771489,44.320523 L -68.795063,44.30786 L -68.827197,44.31216 L -68.828377,44.316549 L -68.825419,44.334547 L -68.821311,44.349594 L -68.817647,44.353093 L -68.814811,44.362194 L -68.818703,44.375077 L -68.821767,44.40894 L -68.815325,44.42808 L -68.801634,44.434803 L -68.785898,44.462611 L -68.783679,44.473879 L -68.810059,44.468737 L -68.829153,44.462242 L -68.858993,44.444923 L -68.880271,44.428112 L -68.886491,44.430676 L -68.890826,44.437995 L -68.8928,44.443415 L -68.892073,44.445075 L -68.897104,44.450643 L -68.900934,44.452062 L -68.927452,44.448039 L -68.931934,44.43869 L -68.946582,44.429108 L -68.982449,44.426195 L -68.990767,44.415033 L -68.984404,44.396879 L -68.978815,44.38634 L -68.9673,44.381106 L -68.961111,44.375076 L -68.948164,44.355882 L -68.954465,44.32405 L -68.958889,44.314353 L -68.979005,44.296327 L -69.003682,44.294582 L -69.005071,44.274071 L -69.017051,44.257086 L -69.029434,44.248558 L -69.040193,44.233673 L -69.043599,44.225029 L -69.042807,44.215173 L -69.05181,44.19592 L -69.054546,44.171542 L -69.06124,44.165498 L -69.077776,44.165043 L -69.079835,44.160953 L -69.080978,44.156768 L -69.079608,44.143962 L -69.075667,44.129991 L -69.080331,44.117824 L -69.100863,44.104529 L -69.101107,44.093601 L -69.092,44.085734 L -69.089078,44.085326 L -69.076452,44.090634 L -69.056303,44.095162 L -69.050814,44.094888 L -69.043403,44.092164 L -69.031878,44.079036 L -69.048917,44.062506 L -69.050566,44.063152 L -69.050622,44.068017 L -69.056093,44.06949 L -69.064299,44.069911 L -69.067876,44.067596 L -69.079805,44.055256 L -69.073767,44.046135 L -69.081131,44.041295 L -69.094177,44.038981 L -69.113113,44.028881 L -69.125738,44.019623 L -69.128052,44.017309 L -69.124475,44.007419 L -69.148883,43.998582 L -69.162559,43.999003 L -69.170345,43.995637 L -69.193805,43.975543 L -69.197803,43.967547 L -69.193805,43.959762 L -69.19633,43.950504 L -69.203668,43.941806 L -69.214205,43.935583 L -69.237368,43.931596 L -69.24271,43.925465 L -69.260862,43.915405 L -69.273949,43.914215 L -69.278113,43.917189 L -69.278708,43.921948 L -69.274544,43.927897 L -69.267515,43.943667 L -69.280498,43.95744 L -69.283998,43.958569 L -69.288513,43.957665 L -69.307776,43.943451 L -69.31427,43.942951 L -69.319751,43.94487 L -69.305176,43.956676 L -69.304301,43.962068 L -69.331411,43.974311 L -69.351961,43.974748 L -69.366702,43.964755 L -69.388059,43.96434 L -69.398455,43.971804 L -69.416165,43.977267 L -69.42876,43.957929 L -69.431686,43.964546 L -69.436495,43.966878 L -69.441596,43.964254 L -69.45107,43.941955 L -69.459637,43.903316 L -69.483498,43.88028 L -69.486243,43.869118 L -69.50329,43.837673 L -69.514889,43.831298 L -69.516212,43.837222 L -69.513267,43.84479 L -69.520301,43.868498 L -69.524673,43.875639 L -69.543912,43.881615 L -69.54945,43.880012 L -69.550908,43.877971 L -69.550616,43.872579 L -69.545028,43.861241 L -69.552606,43.841347 L -69.558122,43.84066 L -69.568325,43.844449 L -69.572697,43.844012 L -69.575466,43.841972 L -69.578527,43.823316 L -69.588551,43.81836 L -69.604179,43.813551 L -69.605928,43.814862 L -69.604616,43.825793 L -69.598495,43.825502 L -69.592373,43.830895 L -69.589167,43.851299 L -69.594705,43.858878 L -69.604616,43.858004 L -69.613215,43.845032 L -69.613069,43.837453 L -69.61511,43.831623 L -69.621086,43.826814 L -69.630268,43.837016 L -69.629685,43.843429 L -69.634932,43.845907 L -69.649798,43.836287 L -69.65315,43.817194 L -69.650818,43.803785 L -69.653337,43.79103 L -69.664922,43.791033 L -69.685473,43.816328 L -69.685579,43.820546 L -69.692429,43.824336 L -69.697239,43.825065 L -69.705838,43.823024 L -69.714873,43.810264 L -69.717804,43.801047 L -69.717074,43.792403 L -69.719723,43.786685 L -69.752801,43.75594 L -69.761587,43.757 L -69.780097,43.755397 L -69.782429,43.753794 L -69.782283,43.75117 L -69.778494,43.747089 L -69.778348,43.744612 L -69.835323,43.721125 L -69.838689,43.70514 L -69.851297,43.703581 L -69.855081,43.704746 L -69.857927,43.723915 L -69.855595,43.73266 L -69.858947,43.740531 L -69.868673,43.742701 L -69.862155,43.758962 L -69.869732,43.775656 L -69.884066,43.778035 L -69.903164,43.77239 L -69.915593,43.775112 L -69.927011,43.780174 L -69.948539,43.765948 L -69.953246,43.768806 L -69.958056,43.767786 L -69.982574,43.750801 L -69.989131,43.743227 L -69.994479,43.728451 L -69.992396,43.726852 L -69.992615,43.724793 L -70.001645,43.717666 L -70.006954,43.717065 L -70.005205,43.727559 L -70.001125,43.733389 L -69.998793,43.740385 L -70.001708,43.744466 L -70.041351,43.738053 L -70.040768,43.745049 L -70.034355,43.759041 L -70.02561,43.769534 L -70.005205,43.787607 L -69.99821,43.798684 L -69.999376,43.805097 L -70.002874,43.812093 L -70.011035,43.810927 L -70.026193,43.822587 L -70.026193,43.829 L -70.023278,43.834247 L -70.006954,43.844158 L -70.002874,43.848239 L -70.002874,43.852903 L -70.009869,43.859315 L -70.019197,43.858733 L -70.032023,43.849988 L -70.053594,43.828417 L -70.053011,43.821421 L -70.064671,43.813259 L -70.06642,43.819672 L -70.080995,43.819672 L -70.107229,43.809178 L -70.142792,43.791688 L -70.153869,43.781194 L -70.153869,43.774781 L -70.176023,43.76079 L -70.177772,43.764871 L -70.172525,43.773615 L -70.17544,43.777113 L -70.190014,43.771866 L -70.194678,43.766037 L -70.197593,43.753211 L -70.194095,43.745632 L -70.194678,43.742134 L -70.217998,43.71998 L -70.219164,43.715899 L -70.215666,43.707737 L -70.216832,43.704822 L -70.227909,43.701907 L -70.23199,43.704822 L -70.251812,43.683251 L -70.254144,43.676839 L -70.252961,43.67501 L -70.247321,43.671973 L -70.242289,43.669544 L -70.239512,43.665986 L -70.240119,43.664685 L -70.241942,43.663296 L -70.240987,43.659132 L -70.22299,43.639023 L -70.211204,43.625765 L -70.217087,43.596717 L -70.214369,43.590445 L -70.20112,43.586515 L -70.196911,43.565146 L -70.206123,43.557627 L -70.216782,43.556874 L -70.219784,43.562149 L -70.231963,43.561118 L -70.244331,43.551849 L -70.261917,43.553687 L -70.272497,43.562616 L -70.299184,43.550589 L -70.307764,43.544315 L -70.311493,43.534136 L -70.308743,43.52795 L -70.321116,43.527262 L -70.319741,43.534136 L -70.328806,43.541946 L -70.341793,43.540484 L -70.352826,43.535855 L -70.361214,43.52919 L -70.379123,43.507202 L -70.384885,43.49604 L -70.385615,43.487031 L -70.382928,43.469674 L -70.380233,43.46423 L -70.37223,43.45508 L -70.367364,43.452264 L -70.357549,43.457833 L -70.327303,43.458521 L -70.337884,43.442051 L -70.349684,43.442032 L -70.362015,43.439077 L -70.370514,43.434133 L -70.376638,43.427644 L -70.380776,43.410223 L -70.398465,43.392919 L -70.400773,43.395226 L -70.401666,43.401262 L -70.406416,43.400942 L -70.421282,43.395777 L -70.427672,43.389254 L -70.424421,43.379656 L -70.418461,43.372538 L -70.414616,43.362156 L -70.426537,43.35408 L -70.465975,43.340246 L -70.472933,43.343972 L -70.485312,43.346391 L -70.517695,43.344037 L -70.535244,43.336771 L -70.553854,43.321886 L -70.562779,43.310614 L -70.585184,43.270113 L -70.593907,43.249295 L -70.591022,43.237851 L -70.575787,43.221859 L -70.576692,43.217651 L -70.587814,43.199858 L -70.606994,43.177553 L -70.592177,43.170738 L -70.59149,43.164551 L -70.618973,43.163625 L -70.625953,43.147382 L -70.622384,43.138867 L -70.62251,43.134573 L -70.632067,43.133157 L -70.634455,43.127603 L -70.634311,43.122162 L -70.638355,43.114182 L -70.655322,43.098008 L -70.656223,43.093164 L -70.665958,43.076234 L -70.673114,43.070314 L -70.703818,43.059825 L -70.703819,43.059825 z" /><path fill-rule="evenodd" fill="#66cc99" stroke="#555555" stroke-width="0.09680951520000008" opacity="0.6" d="M -70.135957,43.753219 L -70.135957,43.756243 L -70.13254,43.762142 L -70.129721,43.76408 L -70.117688,43.765693 L -70.11663,43.765458 L -70.116176,43.765189 L -70.116932,43.764181 L -70.120225,43.760642 L -70.128198,43.755667 L -70.132054,43.754101 L -70.135957,43.753219 z" /><path fill-rule="evenodd" fill="#66cc99" stroke="#555555" stroke-width="0.09680951520000008" opacity="0.6" d="M -70.152589,43.746794 L -70.151959,43.749188 L -70.153344,43.750574 L -70.156116,43.74944 L -70.157754,43.749818 L -70.15851,43.750601 L -70.158456,43.751616 L -70.147646,43.758585 L -70.146286,43.7621 L -70.145911,43.772119 L -70.145033,43.773668 L -70.143603,43.774108 L -70.134287,43.774156 L -70.133029,43.774323 L -70.131174,43.774387 L -70.128271,43.774009 L -70.127389,43.772623 L -70.129668,43.770943 L -70.132485,43.768549 L -70.135513,43.765576 L -70.14089,43.753204 L -70.142827,43.75163 L -70.146539,43.750093 L -70.14983,43.74739 L -70.151833,43.746542 L -70.152589,43.746794 z" /><path fill-rule="evenodd" fill="#66cc99" stroke="#555555" stroke-width="0.09680951520000008" opacity="0.6" d="M -68.140549,44.376804 L -68.148369,44.384109 L -68.147774,44.392437 L -68.134094,44.40731 L -68.135284,44.415043 L -68.143013,44.425751 L -68.142616,44.436611 L -68.134094,44.450733 L -68.126358,44.446571 L -68.119926,44.411175 L -68.126114,44.388493 L -68.140549,44.376804 z" /><path fill-rule="evenodd" fill="#66cc99" stroke="#555555" stroke-width="0.09680951520000008" opacity="0.6" d="M -68.45443,44.298336 L -68.45649,44.344395 L -68.446869,44.362953 L -68.421432,44.374641 L -68.415932,44.358143 L -68.428993,44.32996 L -68.447556,44.3004 L -68.45443,44.298336 z" /><path fill-rule="evenodd" fill="#66cc99" stroke="#555555" stroke-width="0.09680951520000008" opacity="0.6" d="M -68.707047,44.272324 L -68.73143,44.289574 L -68.746307,44.302662 L -68.738762,44.311031 L -68.682396,44.285595 L -68.688599,44.275894 L -68.707047,44.272324 z" /><path fill-rule="evenodd" fill="#66cc99" stroke="#555555" stroke-width="0.09680951520000008" opacity="0.6" d="M -68.459244,44.255032 L -68.486046,44.269466 L -68.491547,44.283215 L -68.45443,44.257778 L -68.459244,44.255032 z" /><path fill-rule="evenodd" fill="#66cc99" stroke="#555555" stroke-width="0.09680951520000008" opacity="0.6" d="M -69.351875,43.922543 L -69.369125,43.926113 L -69.371506,43.931465 L -69.364967,43.941578 L -69.357231,43.951096 L -69.344147,43.960613 L -69.33403,43.964779 L -69.325111,43.955856 L -69.325111,43.9505 L -69.331055,43.945148 L -69.339386,43.944553 L -69.341766,43.939198 L -69.340576,43.933846 L -69.343552,43.925518 L -69.351875,43.922543 z" /><path fill-rule="evenodd" fill="#66cc99" stroke="#555555" stroke-width="0.09680951520000008" opacity="0.6" d="M -69.134735,43.86031 L -69.125107,43.89674 L -69.117546,43.898117 L -69.1203,43.873371 L -69.134735,43.86031 z" /><path fill-rule="evenodd" fill="#66cc99" stroke="#555555" stroke-width="0.09680951520000008" opacity="0.6" d="M -67.51841,44.554241 L -67.533279,44.564354 L -67.541611,44.578037 L -67.541611,44.58934 L -67.538635,44.590527 L -67.532684,44.588745 L -67.525543,44.58577 L -67.52079,44.587555 L -67.51841,44.595882 L -67.514244,44.597668 L -67.493423,44.588745 L -67.481529,44.580414 L -67.482124,44.577442 L -67.486282,44.575657 L -67.499969,44.578037 L -67.511269,44.582794 L -67.517815,44.579823 L -67.519005,44.575062 L -67.514839,44.570301 L -67.497589,44.564354 L -67.489258,44.561974 L -67.488068,44.559597 L -67.499969,44.554836 L -67.51841,44.554241 z" /><path fill-rule="evenodd" fill="#66cc99" stroke="#555555" stroke-width="0.09680951520000008" opacity="0.6" d="M -67.789024,44.472355 L -67.80484,44.484039 L -67.830269,44.515663 L -67.836456,44.530785 L -67.830269,44.539722 L -67.792465,44.493664 L -67.780777,44.477165 L -67.789024,44.472355 z" /><path fill-rule="evenodd" fill="#66cc99" stroke="#555555" stroke-width="0.09680951520000008" opacity="0.6" d="M -67.53537,44.472355 L -67.551186,44.480602 L -67.551125,44.49297 L -67.554695,44.500111 L -67.563622,44.507248 L -67.560646,44.51379 L -67.552559,44.515663 L -67.523682,44.512913 L -67.516029,44.506653 L -67.510628,44.496414 L -67.53537,44.472355 z" /><path fill-rule="evenodd" fill="#66cc99" stroke="#555555" stroke-width="0.09680951520000008" opacity="0.6" d="M -69.319756,43.854729 L -69.322731,43.860676 L -69.318565,43.879711 L -69.313805,43.881496 L -69.307259,43.87793 L -69.306664,43.867817 L -69.310829,43.859486 L -69.319756,43.854729 z" /><path fill-rule="evenodd" fill="#66cc99" stroke="#555555" stroke-width="0.09680951520000008" opacity="0.6" d="M -70.046562,43.781998 L -70.048561,43.790375 L -70.046165,43.79636 L -70.029808,43.811123 L -70.027016,43.809128 L -70.040184,43.784389 L -70.046562,43.781998 z" /><path fill-rule="evenodd" fill="#66cc99" stroke="#555555" stroke-width="0.09680951520000008" opacity="0.6" d="M -70.10202,43.77681 L -70.113197,43.781197 L -70.096039,43.78838 L -70.089653,43.785187 L -70.10202,43.77681 z" /><path fill-rule="evenodd" fill="#66cc99" stroke="#555555" stroke-width="0.09680951520000008" opacity="0.6" d="M -70.061325,43.7421 L -70.060928,43.760849 L -70.056541,43.772022 L -70.04377,43.763641 L -70.046165,43.757259 L -70.061325,43.7421 z" /><path fill-rule="evenodd" fill="#66cc99" stroke="#555555" stroke-width="0.09680951520000008" opacity="0.6" d="M -70.079285,43.706989 L -70.08886,43.714569 L -70.084465,43.719357 L -70.072098,43.718956 L -70.071304,43.713772 L -70.079285,43.706989 z" /><path fill-rule="evenodd" fill="#66cc99" stroke="#555555" stroke-width="0.09680951520000008" opacity="0.6" d="M -70.096039,43.672276 L -70.101227,43.675468 L -70.09285,43.687836 L -70.087257,43.691029 L -70.088455,43.681454 L -70.096039,43.672276 z" /><path fill-rule="evenodd" fill="#66cc99" stroke="#555555" stroke-width="0.09680951520000008" opacity="0.6" d="M -70.228317,43.538261 L -70.245499,43.539635 L -70.235878,43.547199 L -70.224876,43.547199 L -70.228317,43.538261 z" /><path fill-rule="evenodd" fill="#66cc99" stroke="#555555" stroke-width="0.09680951520000008" opacity="0.6" d="M -70.607834,42.977764 L -70.618523,42.985657 L -70.617249,42.99202 L -70.605476,43.005829 L -70.599686,43.006016 L -70.597649,43.003983 L -70.608467,42.99469 L -70.607574,42.990875 L -70.601089,42.984638 L -70.601349,42.981083 L -70.607834,42.977764 z" /></g></g></svg>