<svg xmlns="http://www.w3.org/2000/svg" xmlns:xlink="http://www.w3.org/1999/xlink" width="100.0" height="100.0" viewBox="-117.67228663979655 32.46762636028835 1.6525522802235457 1.0986042800235225" preserveAspectRatio="xMinYMin meet"><g transform="matrix(1,0,0,-1,0,66.03385700060022)"><path fill-rule="evenodd" fill="#66cc99" stroke="#555555" stroke-width="0.03305104560447091" opacity="0.6" d="M -117.18915300021075,32.52993099971593 L -117.2049169996198,32.52883200029663 L -117.20495599961964,32.52902800034201 L -117.20499499961949,32.52922400038739 L -117.20705200004971,32.539616000278215 L -117.21002499955404,32.554634000358874 L -117.21002499955404,32.57230499957615 L -117.21002499955404,32.5728830001504 L -117.21193600044603,32.58312400027245 L -117.21207200042244,32.58385699990066 L -117.21247900030556,32.586034999615606 L -117.21333400016397,32.590615000382 L -117.21411200006872,32.594781000043156 L -117.218196000445,32.61029200037558 L -117.21928999963376,32.61263699969783 L -117.222512999875,32.619545999948 L -117.22266999992053,32.619884000246486 L -117.22314400019542,32.62089900028866 L -117.22330200028705,32.62123799973398 L -117.22395199968503,32.620888999827514 L -117.22590299972364,32.61984400020049 L -117.22655400006704,32.61949600034018 L -117.2284080001291,32.61850200036707 L -117.23113600002637,32.61752700037084 L -117.23351299992498,32.616677999889816 L -117.24066000035867,32.61576600010085 L -117.24587699992355,32.61498900024225 L -117.24678599957417,32.61485400031194 L -117.25086899990441,32.61485600040413 L -117.25199399962332,32.61485999968926 L -117.25509200039545,32.61547400012506 L -117.25656099979028,32.61584900033114 L -117.25677999999698,32.61590200007731 L -117.26077099968188,32.61686999975075 L -117.2631129997651,32.617649999747755 L -117.2650180003804,32.61815999988414 L -117.26732099956445,32.618907000158 L -117.26878899981244,32.61941500020214 L -117.271245999803,32.62070000010499 L -117.27259199982092,32.62161199989396 L -117.27366399979371,32.62204500007675 L -117.27410000011486,32.6222210000991 L -117.27596299969264,32.62313499998032 L -117.2769159995737,32.623474000324904 L -117.27881399986614,32.62505300029579 L -117.28260500022054,32.62843499977549 L -117.28583800002366,32.63131799962605 L -117.29397500024601,32.638587000289874 L -117.29753799997866,32.64176900043907 L -117.29772799974734,32.64200699972332 L -117.30734800001017,32.65403699960791 L -117.30923899997981,32.65640099980635 L -117.32093899993487,32.68984699983923 L -117.32180100011601,32.69754999983269 L -117.32351600006331,32.712858999843036 L -117.32410700033779,32.71814399984578 L -117.32561999996301,32.73165299958629 L -117.32576999968569,32.734009000315154 L -117.32611000007643,32.73931799962605 L -117.3262599997991,32.741667000032066 L -117.32671099991268,32.74872099977438 L -117.32686199968151,32.75107200027264 L -117.32689200016563,32.75154499960212 L -117.3269819998194,32.75296400028844 L -117.32701300034967,32.75343699961792 L -117.3273850004174,32.75926300028726 L -117.32748799977134,32.7608749999813 L -117.32775799963196,32.765089000057344 L -117.32857500043588,32.777857999846844 L -117.32891599997339,32.783189000172285 L -117.32939200034053,32.7906279996825 L -117.32951599976354,32.792574000389834 L -117.32988999992352,32.79841199981399 L -117.33001500029201,32.80035999971426 L -117.33018500003772,32.803029999634816 L -117.330299999945,32.80481700020442 L -117.33220100037585,32.81076100002019 L -117.33301700023435,32.813310999802866 L -117.33381700025433,32.81581400011606 L -117.33497999992704,32.81944999961786 L -117.33627400024488,32.82330400017952 L -117.33711100017251,32.82579700003157 L -117.33784199970847,32.82797599979261 L -117.34003800025346,32.83451700015951 L -117.34077099988173,32.83669699996665 L -117.34199999990005,32.84035400043683 L -117.33981099967787,32.85794799970046 L -117.33965999990903,32.85916700015696 L -117.33263999993602,32.88216100023004 L -117.33200500033047,32.883577999924796 L -117.32327899992589,32.9030640001036 L -117.32812600041456,32.91892999971975 L -117.3344339999291,32.93957600033218 L -117.33669699996653,32.9469840002115 L -117.34348600007883,32.9692089998955 L -117.34575000016235,32.97661799982086 L -117.34618699963028,32.97804900016126 L -117.3474979998328,32.982342000283154 L -117.3479360002462,32.98377299972424 L -117.34884599994291,32.986752999551356 L -117.35157699997853,32.99569399997819 L -117.3524879997214,32.9986749998514 L -117.35344399974076,33.001806000346676 L -117.35631499993724,33.01120100012611 L -117.35727200000275,33.01433299976816 L -117.35854000002092,33.01848599972914 L -117.36234700021384,33.030947999750424 L -117.36361700032427,33.03510199975756 L -117.36363999958627,33.03517899971109 L -117.36371100016248,33.035410999617966 L -117.36373500036996,33.03548899961771 L -117.36601300019976,33.042945999957965 L -117.36831300014478,33.050475000021265 L -117.36936800023301,33.05392900012333 L -117.37284899978147,33.065323000356216 L -117.37500200014216,33.07236899972963 L -117.37506600039558,33.072576000282254 L -117.37512899970352,33.072782999935555 L -117.3752590003026,33.073208999795554 L -117.37538099963336,33.0736100003013 L -117.37574900041602,33.07481500011221 L -117.37587199979293,33.07521699976479 L -117.38167600034711,33.08521699956492 L -117.3922379999837,33.10341799984087 L -117.39914700023382,33.1149310001656 L -117.39926200014116,33.115121999980374 L -117.4051920002106,33.12500299968872 L -117.40521300027973,33.125038000403435 L -117.40619299960719,33.12673300032776 L -117.40913600042603,33.13182100023903 L -117.41011699979964,33.13351700020945 L -117.41548099984823,33.142790999804845 L -117.42042600035961,33.15134000014092 L -117.43073399997411,33.16916200002635 L -117.43157400004003,33.17061400043582 L -117.43556299963268,33.177512000178695 L -117.43742600010978,33.17952999970976 L -117.44953600008631,33.19264099998219 L -117.46787100024642,33.21249399999817 L -117.48759799984776,33.230220999999176 L -117.50000099984624,33.24136600044062 L -117.50043800021348,33.241758999678154 L -117.50087499968146,33.24215099976885 L -117.50224699999904,33.24372699960139 L -117.50636400009847,33.248457000090525 L -117.50773699956284,33.25003399996916 L -117.50860700011293,33.25126900026419 L -117.51121800001067,33.25497800043445 L -117.51208899970754,33.25621499992235 L -117.5209989996041,33.26887199994292 L -117.52843299978309,33.27551200037857 L -117.54960100018599,33.29441799989081 L -117.5715309997558,33.312301999937404 L -117.58876899968953,33.32175499969355 L -117.61108099978827,33.33399200013076 L -117.61103899965008,33.33412499996882 L -117.60868399986668,33.34219799993781 L -117.60150399970979,33.36682099958949 L -117.59911099997265,33.37502900038811 L -117.59864400002056,33.376747999620534 L -117.59724600030262,33.38190900020027 L -117.59678000039668,33.38362900037811 L -117.59677200002773,33.38365499977846 L -117.59660500042042,33.38420800009919 L -117.59655399986718,33.38437699979875 L -117.59608399977674,33.385945000161655 L -117.59620299986852,33.38689499990437 L -117.59608499982284,33.387472000432524 L -117.59589099986971,33.388161999876445 L -117.59531899957216,33.39000700042277 L -117.59511900024165,33.39075399979731 L -117.59506400040328,33.39097300000401 L -117.5950089996656,33.39111900044156 L -117.59488100005808,33.39174699972432 L -117.5947330004276,33.392570999951715 L -117.59463999973616,33.39288600008888 L -117.59451000003645,33.39334799981037 L -117.59436200040597,33.393838999969944 L -117.5943289997835,33.393905000315556 L -117.5942879996914,33.39399600001542 L -117.59421299983006,33.394258999553244 L -117.59414000006092,33.39449599969066 L -117.59412200013014,33.394634999805476 L -117.5940870003148,33.39481800015062 L -117.5940830001303,33.3948360000814 L -117.59407799989975,33.39485500005827 L -117.59405499973843,33.394920000357786 L -117.59399200043043,33.39513400033388 L -117.59396500008467,33.3952260000799 L -117.59392500003867,33.39535899991796 L -117.5939100002463,33.39541599984858 L -117.59390600006179,33.39546400026347 L -117.59387899971603,33.39579300014691 L -117.59387200029255,33.395877999570075 L -117.59374199969352,33.39623599989153 L -117.59371900043146,33.3962959999605 L -117.59366499973993,33.39650599975215 L -117.5936550001781,33.396547999890345 L -117.59364199957861,33.39660699991316 L -117.59359900029358,33.39681899979706 L -117.5935139999711,33.39723199995689 L -117.59326800031795,33.39806999993061 L -117.5932310004103,33.39819700039129 L -117.59321299958026,33.39826099974539 L -117.59320800024898,33.398278999676165 L -117.5931169996498,33.398587000389796 L -117.59303100018047,33.39887700027339 L -117.59057600028217,33.407291999825986 L -117.59056399972877,33.407342000333074 L -117.59052999995947,33.40749300010191 L -117.59051900035155,33.40754399975583 L -117.59048399963683,33.40769400037789 L -117.59038100028289,33.408145999638236 L -117.59034799966042,33.40829700030639 L -117.59028899963761,33.40855399956746 L -117.5901139996613,33.40932800018709 L -117.59005599968458,33.40958600039363 L -117.59003999984606,33.409653999932175 L -117.58999499956957,33.409854000162056 L -117.58997999977714,33.4099219997006 L -117.58991699956982,33.41019299960732 L -117.58989200021563,33.41030800041392 L -117.58986800000815,33.410414999952366 L -117.58973200003174,33.411010999558016 L -117.58967099991668,33.411283999556986 L -117.58962999982458,33.41146199967159 L -117.58950799959445,33.41200200029215 L -117.58946800044782,33.41218199959968 L -117.5893379998488,33.412752999851136 L -117.58894999994249,33.414467999798376 L -117.58882100028887,33.415040000095985 L -117.58873900010474,33.41539800041744 L -117.58849499964447,33.41647299962926 L -117.58841499955253,33.41683199999687 L -117.58827999962227,33.41742799960252 L -117.5874510000636,33.420551999775 L -117.58642799965241,33.424409999621844 L -117.58449300035164,33.431697000216445 L -117.58431700032929,33.432364000398366 L -117.58350799989427,33.435412999810126 L -117.58331800012559,33.43612700036084 L -117.58303100038034,33.437213000079964 L -117.58274899996633,33.438271000306486 L -117.5825600002438,33.438987000050076 L -117.58217899976097,33.440379000390635 L -117.58103800020353,33.44455699970581 L -117.58085299976608,33.44523600044113 L -117.58065899981295,33.445950000092466 L -117.58061300038963,33.446116999699825 L -117.58047500032097,33.44661900036664 L -117.58043000004443,33.446787000020095 L -117.58007499986132,33.448086999715315 L -117.57931699997954,33.45086400007358 L -117.57900800011907,33.45198699970035 L -117.57865199988987,33.45328700029489 L -117.57861700007447,33.45341499990235 L -117.57852300023626,33.45380099971641 L -117.57848000005191,33.45392700013099 L -117.5773799996872,33.45379799957806 L -117.57425400032184,33.45343700001757 L -117.57408000039169,33.4534169999946 L -117.57367999993204,33.45337099967196 L -117.57345600039406,33.453349999602835 L -117.57333900039453,33.45333899999491 L -117.57297899998082,33.45330500022561 L -117.57268399986668,33.453277999879845 L -117.5720630000074,33.453217999810875 L -117.57069800001267,33.45308900015726 L -117.56931500008716,33.452990000088505 L -117.56839900011374,33.452926999881186 L -117.56834500032147,33.45292299969674 L -117.5681830000454,33.45291100004266 L -117.56813000029922,33.452906999858214 L -117.56804900016118,33.45289700029639 L -117.56780699979316,33.45286899990447 L -117.56772699970122,33.45286199958167 L -117.56726600002582,33.45279700018148 L -117.5670999995653,33.452772999974 L -117.5652190000568,33.45250800034398 L -117.56503899984995,33.45248300009041 L -117.56459299996692,33.45241999988315 L -117.56443499987529,33.452397999767925 L -117.5629430003192,33.45230499997581 L -117.56202700034578,33.45220199972255 L -117.5590699997806,33.45179799997777 L -117.55798500010764,33.451632999563344 L -117.55780399985468,33.451523999932704 L -117.55722600017975,33.45119400000317 L -117.55669900015869,33.45137200011777 L -117.55625799960694,33.45147300027878 L -117.55606799983826,33.45166900032416 L -117.55583699997754,33.45182300023134 L -117.55560900025512,33.45197600009237 L -117.5540850001226,33.45252400018251 L -117.55375700028532,33.452610999697924 L -117.55343099964091,33.45269600002041 L -117.55183299969315,33.453119999788214 L -117.54828199961457,33.453668999924446 L -117.54538099983324,33.454347999760444 L -117.54266699968224,33.45498699955044 L -117.54200899991537,33.45511400001112 L -117.54003499971543,33.455494999594634 L -117.53939499987933,33.455618999916965 L -117.53937900004081,33.45562700028586 L -117.53923000036417,33.45562700028586 L -117.53853599983648,33.45564300012438 L -117.5384290002981,33.45564300012438 L -117.53781099967784,33.45595600016935 L -117.52759899999381,33.46113599982658 L -117.52722399978774,33.46148899991749 L -117.52691900011172,33.461775999662734 L -117.51546899999431,33.46750600040167 L -117.5150139996963,33.46773900035464 L -117.5143739998602,33.46775100000872 L -117.51433099967585,33.46775100000872 L -117.51425099958391,33.46779500023911 L -117.51417499967647,33.467838000423455 L -117.51370599963212,33.46810800028402 L -117.51325500041793,33.46824000007598 L -117.50879399974326,33.469560999840326 L -117.50861400043573,33.46961399958644 L -117.50860600006683,33.469730999586034 L -117.50857500043588,33.47021500032207 L -117.50856900015918,33.47044600018279 L -117.5091299999495,33.47111799969599 L -117.50922399978771,33.4712300003643 L -117.5092999996952,33.47131699987972 L -117.50958100006306,33.47163300006298 L -117.50958200010916,33.47166199960168 L -117.50953499974042,33.476186999630386 L -117.5095119995791,33.47849199980601 L -117.50945499964848,33.484026999646346 L -117.50938199987934,33.49118399964192 L -117.50937599960264,33.49184599959324 L -117.50951699980965,33.49525400027193 L -117.50963699994753,33.498172999984035 L -117.50971399990112,33.500025999999934 L -117.50972200027007,33.50501900002689 L -117.50850699999802,33.505017999980794 L -117.50486500021952,33.505017999980794 L -117.50365099999362,33.50501900002689 L -117.50197500004617,33.505017999980794 L -117.49694800024997,33.505017999980794 L -117.49527300034867,33.50502000007299 L -117.4927540001969,33.50502000007299 L -117.48520099992618,33.50502000007299 L -117.48268299982055,33.505021000119086 L -117.48181100007758,33.50502000007299 L -117.47919800008759,33.50502000007299 L -117.47832800043682,33.50502200016524 L -117.47561100014752,33.50502000007299 L -117.4674630003172,33.50502300021134 L -117.46475000021229,33.505024000257436 L -117.46102300011131,33.50502300021134 L -117.45436299965269,33.50502300021134 L -117.44984299985452,33.505021000119086 L -117.44785800004661,33.50502200016524 L -117.44611699979964,33.50502200016524 L -117.43206800033789,33.505021000119086 L -117.42347099958693,33.50502300021134 L -117.389921000154,33.505024000257436 L -117.37587299983903,33.50502500030359 L -117.37355199982488,33.50502500030359 L -117.36659199992084,33.50502500030359 L -117.36427199995279,33.50502500030359 L -117.36449200020559,33.504544999752 L -117.36515200006471,33.50310399984977 L -117.3653720003175,33.5026250002436 L -117.36538600006384,33.5025890003821 L -117.36542900024813,33.50248800022109 L -117.36544400004055,33.50245399955247 L -117.36650300031317,33.499988000046244 L -117.36713199964203,33.49864300007442 L -117.37092500008868,33.49054900003637 L -117.36755100007855,33.48939900006383 L -117.36360899995537,33.488056000184315 L -117.36028300036014,33.486986000303716 L -117.35171700013939,33.48436199980648 L -117.34598400016142,33.482540000320796 L -117.34345100026343,33.48173500007027 L -117.33321000014138,33.47850599955228 L -117.32637399966035,33.47632699979124 L -117.32240299999842,33.47503100028047 L -117.316878999766,33.47322999996459 L -117.31683599958166,33.47321700026441 L -117.31644500043637,33.473096000080375 L -117.31557099970183,33.47282700026591 L -117.31527200030251,33.472751000358414 L -117.31487800011956,33.472655000428006 L -117.3147689995896,33.472627000036084 L -117.31469799991271,33.47260199978251 L -117.31465100044329,33.47258499989789 L -117.31461999991302,33.47257400028991 L -117.3095699999555,33.4708269997663 L -117.3072819996645,33.47008899990749 L -117.30337000002544,33.46882700016596 L -117.30325800025645,33.468790000258366 L -117.30285100037332,33.46865400028196 L -117.30163099987072,33.46824600035268 L -117.30127000031024,33.46812700026089 L -117.3012239999876,33.468114999707495 L -117.3011530003107,33.468096999776776 L -117.3009400003807,33.4680440000306 L -117.30086999985059,33.46802700014598 L -117.3007499997127,33.46798700010004 L -117.30039000019832,33.467866999962155 L -117.30027000006044,33.467826999916156 L -117.29961000020131,33.46760699966336 L -117.29762999972468,33.46694599975814 L -117.29696999986555,33.46672699955144 L -117.2949019998274,33.46608599966919 L -117.29277000043515,33.46542599981012 L -117.28872700015091,33.4640809998383 L -117.28851100008256,33.46400900011531 L -117.28667299985904,33.463397999817914 L -117.28623300025271,33.463262999887604 L -117.28491000039617,33.46285900014277 L -117.28446899984442,33.46272700035081 L -117.28432799963741,33.462662000051296 L -117.28390700000801,33.46247000019042 L -117.28378299968563,33.4624140003059 L -117.283765999801,33.46241100016755 L -117.28364599966312,33.462385999914034 L -117.28329200042543,33.46231300014489 L -117.2832450000567,33.46230399972984 L -117.28317300033365,33.46228999998357 L -117.28313899966508,33.46228199961462 L -117.28286699971221,33.4622279998224 L -117.28205700013041,33.46195799996178 L -117.28098600020371,33.46159999964033 L -117.27884000016581,33.46088399989674 L -117.27776900023912,33.46052699962138 L -117.27765899966306,33.460492999852136 L -117.27712800035692,33.460327000290874 L -117.2752079999492,33.4597269996014 L -117.2745690001592,33.459527000270896 L -117.2745290001132,33.459507000247925 L -117.27440799992922,33.45944600013286 L -117.27436899992938,33.45942700015598 L -117.2743580003214,33.45942299997154 L -117.27431900032155,33.45941100031746 L -117.2735689999094,33.45917300013389 L -117.27131899957215,33.458462999767676 L -117.27056900005925,33.458226999676356 L -117.2699629999924,33.45801099960801 L -117.2681449997919,33.45736500039453 L -117.26753999977115,33.45715000037228 L -117.26701499984233,33.45697999972725 L -117.26544500028649,33.45647199968312 L -117.26492199955061,33.456304000029604 L -117.26475299985105,33.456249000191235 L -117.26424499980686,33.45608499982296 L -117.26412799980733,33.45604799991531 L -117.26407299996896,33.45603100003069 L -117.26188899997732,33.45533500031007 L -117.25930799966443,33.45451300017487 L -117.2553299996797,33.45324700024889 L -117.25314399959586,33.452552999721206 L -117.25306799968843,33.452528000366954 L -117.2528759998275,33.452464000113594 L -117.25282800031192,33.452447000228915 L -117.25188299990049,33.45213200009181 L -117.25156799976332,33.45202799979239 L -117.25154300040913,33.452021000368916 L -117.25148400038626,33.452006999723324 L -117.25147199983292,33.45200200039204 L -117.25145099976379,33.451996000115344 L -117.25125100043329,33.451918000115654 L -117.25065499992826,33.45169000039323 L -117.25049499974443,33.45162900027822 L -117.25045699979069,33.451615999678666 L -117.25023100016051,33.45154199986348 L -117.24990799965445,33.45148399988676 L -117.24953000020929,33.45142800000224 L -117.24920899979548,33.45132399970288 L -117.24916000023381,33.451304999726005 L -117.24794199982341,33.45083499963556 L -117.24692299959673,33.45054099956752 L -117.24635100019844,33.45034899970665 L -117.24597700003847,33.45021699991469 L -117.24560199983239,33.45002199991541 L -117.24538799985629,33.449951000238514 L -117.24515599994942,33.44987400028492 L -117.2447079999742,33.44980199966261 L -117.24435099969884,33.44972999993962 L -117.24408299993047,33.44967600014735 L -117.24359800004765,33.449519000101816 L -117.24313500028,33.44930099994127 L -117.24267799988974,33.44915999973426 L -117.24218599968412,33.449019000426574 L -117.24216699970725,33.44901500024213 L -117.2416680000781,33.44892799982739 L -117.24163500035496,33.44820000042972 L -117.2415390004245,33.446021999815514 L -117.24150799989422,33.44529899974907 L -117.24151700030927,33.4452090000953 L -117.24154899998632,33.444946999704314 L -117.2415619996865,33.444860000188896 L -117.24150699984813,33.44272399971288 L -117.24134400042527,33.43632000026787 L -117.24129199982588,33.43418699993015 L -117.24128799964143,33.43412599981508 L -117.2413200002178,33.43383800002374 L -117.24142399961784,33.432928000327024 L -117.24143500012514,33.43279499958959 L -117.24146799984828,33.43244699972928 L -117.24146000037871,33.43242899979856 L -117.24127099975681,33.431993000376735 L -117.24122999966471,33.431990000238386 L -117.23968300027019,33.43194199982349 L -117.23916799990326,33.43192800007722 L -117.2391320000417,33.43192800007722 L -117.23895299988101,33.43193400035386 L -117.23841700034427,33.431953000330736 L -117.23825199992984,33.43196099980037 L -117.23823900022967,33.43195999975421 L -117.23812400032233,33.431953000330736 L -117.2377819998394,33.43193400035386 L -117.23766799997816,33.43192800007722 L -117.23633699975272,33.43194700005404 L -117.23608599986898,33.43195100023854 L -117.23235000025227,33.43200700012301 L -117.23102200016513,33.43202800019213 L -117.23037500000623,33.432025000053784 L -117.22843999980608,33.43202400000763 L -117.22779699983164,33.43202800019213 L -117.227537999579,33.43202900023823 L -117.22677000013539,33.432033999569455 L -117.22651600011329,33.43203799975396 L -117.22636400029836,33.432031000330426 L -117.22591000004644,33.43201499959258 L -117.22575800023151,33.43201000026136 L -117.22570200034698,33.43201499959258 L -117.22556700041667,33.43202900023823 L -117.22552800041683,33.43202800019213 L -117.22547000044011,33.43202700014598 L -117.22534700016388,33.43202400000763 L -117.2249800003267,33.43201799973093 L -117.22485499995827,33.432015999638736 L -117.22366800007813,33.43202800019213 L -117.22009900006879,33.4320729995693 L -117.21891200018865,33.432089000307144 L -117.21829200037547,33.432099999915124 L -117.21711199991881,33.43212099998419 L -117.21643800031342,33.43211799984584 L -117.21581999969322,33.432118999892 L -117.21579500033897,33.432119999938095 L -117.21546899969456,33.432118999892 L -117.21442199997529,33.43211599975365 L -117.21407700025333,33.43211599975365 L -117.21380899958564,33.43211599975365 L -117.21301699993455,33.4321139996614 L -117.21274900016618,33.432114999707494 L -117.21268900009727,33.432114999707494 L -117.21249600019024,33.432119999938095 L -117.212422000375,33.432123000076444 L -117.21178599982397,33.432123000076444 L -117.20984999957778,33.43212700026089 L -117.20926699967225,33.432128000307046 L -117.20920599955718,33.43212900035314 L -117.20890700015792,33.43212900035314 L -117.20801300029967,33.43212900035314 L -117.20771600009328,33.43212900035314 L -117.20668600025868,33.43212900035314 L -117.2065250000287,33.43212900035314 L -117.20615900023762,33.43212900035314 L -117.20149400004806,33.43212900035314 L -117.19993900028459,33.43212900035314 L -117.19938700001,33.432128000307046 L -117.19773400022387,33.432128000307046 L -117.19718500008764,33.43212900035314 L -117.19676799974337,33.43213000039924 L -117.19552099979427,33.43214100000722 L -117.1951109997728,33.432146000237765 L -117.19472700005099,33.43215599979959 L -117.1936150000322,33.432183000145415 L -117.19359099982472,33.432183000145415 L -117.19352200024008,33.43218500023761 L -117.19321400042577,33.43219399975334 L -117.19220399971476,33.43218100005316 L -117.19149899957915,33.43217099959202 L -117.18917500032597,33.43214200005332 L -117.18816599966112,33.43212900035314 L -117.18807499996126,33.43212900035314 L -117.18780300000839,33.43212900035314 L -117.18771300035468,33.43213000039924 L -117.18695300038064,33.43213799986887 L -117.18467599969762,33.43216400016854 L -117.18391699976968,33.43217299968421 L -117.18360299967867,33.43217599982256 L -117.1826630003971,33.432186000283764 L -117.18238099998314,33.43218999956889 L -117.18235000035219,33.43218999956889 L -117.18167299970912,33.43219699989169 L -117.17964199957856,33.43222000005301 L -117.17896599988097,33.432228999568736 L -117.17885800029643,33.432228999568736 L -117.17853599983647,33.43223399979928 L -117.17842700020589,33.43223699993763 L -117.17840600013676,33.43223699993763 L -117.178338999745,33.43223699993763 L -117.17831699962977,33.43223900002988 L -117.17750700004797,33.432251999730056 L -117.17507899959611,33.4322899996838 L -117.1742700000604,33.432304000329395 L -117.17297499969646,33.43232400035237 L -117.16909199959605,33.432386999660366 L -117.16779800017753,33.432407999729435 L -117.16755199962506,33.43240999982169 L -117.16681899999679,33.43242100032893 L -117.16657599958268,33.43242899979856 L -117.1657480000701,33.43245900028268 L -117.16326699987212,33.43254999998254 L -117.16244000040564,33.43258199965959 L -117.16239800026744,33.432582999705744 L -117.1621440002454,33.432572000097764 L -117.16125999994898,33.43253900037462 L -117.16096499983485,33.43252899991347 L -117.16052600027467,33.43252899991347 L -117.1601120000687,33.43252899991347 L -117.16006499969996,33.43252899991347 L -117.15921500007215,33.43259900044359 L -117.15886700021184,33.432629000028385 L -117.15877899975101,33.432629000028385 L -117.15625700036026,33.432625999890035 L -117.15377199997778,33.43262499984394 L -117.15094900019619,33.43262499984394 L -117.14869599972059,33.432622999751686 L -117.14617600042203,33.43262199970559 L -117.14585800014657,33.43261999961334 L -117.14526899996434,33.43261999961334 L -117.14490400021941,33.43261999961334 L -117.14458699999,33.432620999659434 L -117.14429199987586,33.432620999659434 L -117.14392199990033,33.43262699993613 L -117.14367700029328,33.43263000007448 L -117.14309799967293,33.432620999659434 L -117.1429409996274,33.43261899956724 L -117.14286299962771,33.43261800042046 L -117.14157400043973,33.43261000005151 L -117.14121500007218,33.43259400021299 L -117.14086400007352,33.43258099961349 L -117.14063899959012,33.43257100005167 L -117.14027499989129,33.432565999821065 L -117.14014800032993,33.43255900039759 L -117.13998700009995,33.432548999936444 L -117.13997100026143,33.432547999890346 L -117.13961800017051,33.432522999636774 L -117.13511000002643,33.432331999822 L -117.13191200003871,33.43219699989169 L -117.12220600030662,33.43150400030942 L -117.12190299982353,33.431482000194194 L -117.12099500021907,33.43141699989468 L -117.12069299978208,33.43139599982561 L -117.12067699994356,33.43139299968726 L -117.12062900042798,33.43139000044823 L -117.12061399973629,33.43139000044823 L -117.12053999992105,33.43138400017153 L -117.1203199996682,33.43136800033301 L -117.12024699989911,33.43136400014856 L -117.11996300029222,33.43134300007944 L -117.119111999719,33.43128300001047 L -117.1188290001582,33.431262999987496 L -117.11881500041193,33.4312609998953 L -117.11877600041208,33.431266000125845 L -117.11875999967424,33.43125799975695 L -117.1186799995823,33.43125200037957 L -117.11844300034414,33.43123499959563 L -117.11836400029836,33.43123000026435 L -117.11820400011447,33.43123000026435 L -117.11772399956288,33.43123000026435 L -117.11756400027838,33.43123000026435 L -117.11750800039385,33.4312260000799 L -117.11733999984108,33.43121599961876 L -117.11728500000271,33.431214000425825 L -117.11722800007209,33.43121000024138 L -117.11705800032644,33.43120099982633 L -117.11700200044191,33.43119799968798 L -117.1169360000963,33.43119300035676 L -117.11674000005092,33.43118199984946 L -117.11667499975141,33.43117899971111 L -117.11642499991376,33.43116399991874 L -117.1156769995938,33.43111999968829 L -117.11542799980231,33.43110699998812 L -117.11377500001618,33.431010000011554 L -117.10881599975858,33.43072500035851 L -117.10716299997245,33.430629999574876 L -117.10549500039394,33.430554999713536 L -117.10049099985974,33.43033200022171 L -117.09881499991229,33.43025999959934 L -117.09796999961577,33.43030699996814 L -117.09541100031737,33.43045599964472 L -117.09455799965195,33.43050500010571 L -117.0934509998637,33.43045899978307 L -117.09012999959975,33.43032800003721 L -117.08905799962696,33.43028599989901 L -117.08902399985766,33.43028599989901 L -117.08779099965489,33.43029400026796 L -117.08409400003802,33.43032099971441 L -117.08286199988135,33.43033000012946 L -117.08246999979065,33.43032900008336 L -117.08238100018298,33.43032900008336 L -117.080942000373,33.43032900008336 L -117.08046199982141,33.43033000012946 L -117.08031300014483,33.43032900008336 L -117.07986900035405,33.43032900008336 L -117.07972099982425,33.43033000012946 L -117.07824099992217,33.43031000010649 L -117.07764100013202,33.43030299978369 L -117.07140400029436,33.430221999645596 L -117.06932499974891,33.430196000245246 L -117.0675869996403,33.430221999645596 L -117.06237700039821,33.43030099969144 L -117.0606400003357,33.43032900008336 L -117.060562000336,33.43033000012946 L -117.0589640003883,33.43031000010649 L -117.05393599964663,33.43025000003752 L -117.05226099974533,33.43023000001455 L -117.05142199972545,33.43022899996845 L -117.04890999989652,33.43023000001455 L -117.04807299996895,33.43023000001455 L -117.04473199968203,33.430206999853226 L -117.03471800013557,33.43014899987651 L -117.0313810000331,33.43013400008408 L -117.03127699973373,33.430131999991886 L -117.03096499973492,33.43013099994573 L -117.03086100033488,33.43013099994573 L -117.03086100033488,33.428289000437076 L -117.03086100033488,33.42693099986582 L -117.02670000000495,33.42693099986582 L -117.02485999968923,33.42693099986582 L -117.024837999574,33.42693099986582 L -117.02482099968933,33.42693099986582 L -117.0232019996725,33.42693099986582 L -117.01829500001418,33.42693099986582 L -117.01666000015882,33.42693099986582 L -117.01658600034358,33.42693099986582 L -117.0149220000502,33.42693099986582 L -117.00970899977051,33.426931999911915 L -117.00797199970799,33.42693299995801 L -117.00674899996636,33.426931999911915 L -117.0030819999343,33.42693099986582 L -117.00186000023876,33.42693099986582 L -117.00165899996284,33.42699300002698 L -117.00106000021879,33.427178999611215 L -117.00085999998896,33.42724199981848 L -116.99943599997141,33.42729000023337 L -116.99516600001084,33.427434999725506 L -116.99468100012803,33.42745199961013 L -116.99374300003939,33.42748000000205 L -116.99140300004836,33.42755099967894 L -116.98936300040214,33.42761399988626 L -116.9843809999831,33.42763900013978 L -116.98420399991466,33.42764000018593 L -116.98204300008433,33.42769299993205 L -116.9807790002506,33.4277249996091 L -116.97644399999058,33.427745999678166 L -116.97429099962989,33.42775800023156 L -116.95964999984756,33.427680000231874 L -116.95453799972887,33.42765299988611 L -116.95405399989215,33.4276489997016 L -116.9507739997203,33.42762300030125 L -116.94639500012914,33.42758999967879 L -116.94594400001557,33.42758200020921 L -116.94504800006513,33.427567000416786 L -116.94094100042679,33.427494999794476 L -116.93861400013594,33.42745699984073 L -116.93766599958616,33.42739699977176 L -116.93725899970303,33.42737399961044 L -116.9360440003303,33.42731300039469 L -116.9356399996862,33.42729400041782 L -116.93552000044764,33.42726600002595 L -116.93516200012618,33.42718499988791 L -116.9350369997577,33.42715899958819 L -116.93327200020263,33.427208000049234 L -116.93110800023396,33.427271000256496 L -116.92862900012824,33.42734199993339 L -116.92796500008467,33.42736199995636 L -116.92673099983574,33.42739799981791 L -116.92619999963023,33.42745699984073 L -116.92611500020706,33.42746600025578 L -116.92343199968701,33.42747000044022 L -116.92324199991833,33.42746500020962 L -116.91948500023256,33.427377999794885 L -116.91437300011381,33.42721799961106 L -116.91431199999874,33.427216999564905 L -116.91142399991764,33.42703900034962 L -116.91121500017209,33.4270580003265 L -116.91059200022062,33.42711200011877 L -116.91038499966794,33.42713100009564 L -116.90737600030212,33.42710599984207 L -116.89835199964506,33.42703700025743 L -116.89534600041753,33.42701400009605 L -116.89302799964241,33.42699800025758 L -116.88607900024562,33.426960000303836 L -116.883764999655,33.42694999984269 L -116.88371299995492,33.42694999984269 L -116.88049399989814,33.42688999977372 L -116.87587900021566,33.426805000350555 L -116.87068700000503,33.42668400016652 L -116.86741800034042,33.42660900030518 L -116.86702700029582,33.42660900030518 L -116.86585500020806,33.42661699977475 L -116.86555800000167,33.426620999959255 L -116.86546500020955,33.4266250001437 L -116.86432799993719,33.426667000281896 L -116.86091900011172,33.42679499988941 L -116.85978299988551,33.4268380000737 L -116.85924500025652,33.42678500032753 L -116.85763199961707,33.4266260001898 L -116.85709500003418,33.42657399959046 L -116.85677000033519,33.426577999774906 L -116.85579500033896,33.426589000282206 L -116.8554709997868,33.426594999659585 L -116.85537299976409,33.42659599970568 L -116.85472999978964,33.426618999867 L -116.8525099999365,33.426698999958944 L -116.85177100003159,33.42672800039696 L -116.85092299959672,33.42671799993582 L -116.84838699956038,33.426690999589994 L -116.84754300020927,33.426685000212615 L -116.84742400011748,33.42668200007432 L -116.84653499959052,33.426688000350964 L -116.84351100043227,33.42670900042009 L -116.84250499990577,33.42671799993582 L -116.84190199997727,33.42672900044306 L -116.8400960003301,33.42676400025846 L -116.8394940004477,33.426775999912536 L -116.83936099971032,33.426768000442905 L -116.83896400028834,33.42674600032768 L -116.83883199959706,33.426739000004886 L -116.83870299994345,33.42673599986654 L -116.8383160000833,33.42672999958984 L -116.83818799957646,33.42672800039696 L -116.83807199962303,33.42672999958984 L -116.83772699990107,33.42673599986654 L -116.83761199999378,33.426739000004886 L -116.83676899978946,33.42686500041947 L -116.83674699967429,33.42686500041947 L -116.83603099993064,33.4268679996585 L -116.83167000027026,33.42686300032727 L -116.83162800013207,33.42686300032727 L -116.8311770000185,33.42686200028112 L -116.83062099955947,33.42686200028112 L -116.8283859999139,33.42685900014277 L -116.82688099975832,33.42685800009667 L -116.82653700008245,33.42685600000442 L -116.82629999994504,33.42685600000442 L -116.82572000017785,33.42685800009667 L -116.82345199990982,33.4268669996124 L -116.8218259995702,33.4268729998891 L -116.81876200036601,33.42688200030415 L -116.81871099981277,33.42688200030415 L -116.81856100009003,33.42688200030415 L -116.81851099958294,33.426883000350244 L -116.8179689997695,33.42688400039634 L -116.81634300032914,33.426885999589274 L -116.81580199966254,33.42688799968147 L -116.81512299982654,33.42688899972762 L -116.81308500027251,33.42689299991207 L -116.81240699958335,33.42689500000432 L -116.81178599972407,33.42689600005042 L -116.80992400019244,33.42689900018877 L -116.80930400037926,33.426901000280964 L -116.80921499987232,33.426901000280964 L -116.80891899971203,33.426901000280964 L -116.80882299978157,33.42690200032712 L -116.80823000031421,33.42690200032712 L -116.80645300020575,33.42690400041931 L -116.80586099988523,33.42690699965834 L -116.80480299965865,33.42690699965834 L -116.8016350001551,33.426911999888944 L -116.80058100011303,33.42691700011949 L -116.79331699967975,33.426951999934886 L -116.77152900036305,33.427066999842225 L -116.77086300022722,33.42707100002667 L -116.76427300029872,33.42710599984207 L -116.76002999978465,33.42709100004964 L -116.75092099970436,33.427061999611624 L -116.74732200011016,33.42705500018815 L -116.7430890000573,33.42704899991145 L -116.74191299978509,33.4270499999576 L -116.74169499962449,33.42704899991145 L -116.7375200004476,33.427060999565526 L -116.7361300001993,33.42706799988832 L -116.73321499977237,33.42707400016502 L -116.7273160002332,33.42709100004964 L -116.72447799975987,33.427098000372496 L -116.72156899960959,33.42710899998042 L -116.71962099970932,33.42711100007267 L -116.71378200023906,33.42712799995729 L -116.71183600043105,33.427136000326186 L -116.71174799997021,33.427136000326186 L -116.71153199990187,33.42713200014174 L -116.71062300025125,33.427123999772846 L -116.71031999976816,33.427121999680594 L -116.7095860000938,33.427123999772846 L -116.70738700030978,33.42713100009564 L -116.70665399978225,33.42713400023399 L -116.70643400042871,33.42713400023399 L -116.70577599976252,33.42713500028009 L -116.70555699955582,33.42713700037234 L -116.70325400037177,33.42714399979582 L -116.69634800025995,33.427168000003235 L -116.69489699989657,33.42717400027993 L -116.69404700026882,33.42717700041828 L -116.6921669999071,33.427181999749564 L -116.6865319999518,33.427198999634186 L -116.68465499972842,33.42720599995698 L -116.684142000353,33.42720599995698 L -116.68260899980544,33.42721400032593 L -116.68209799962295,33.427216999564905 L -116.68177700010841,33.427219999703254 L -116.67841599979852,33.42722099974941 L -116.66736900027911,33.42722700002611 L -116.66368699955535,33.4272300001644 L -116.65933800044832,33.42722399988776 L -116.65797899983096,33.427222999841604 L -116.64629299962218,33.4272360004411 L -116.6431100003262,33.42724199981848 L -116.64194499966197,33.42724399991073 L -116.64187199989283,33.42724199981848 L -116.64165799991673,33.42724199981848 L -116.64158800028594,33.42724399991073 L -116.63786200023111,33.42724399991073 L -116.62669200043541,33.427251000233525 L -116.62585000027724,33.42725300032578 L -116.62296999966571,33.42729599961075 L -116.62191300038461,33.4273050000258 L -116.6187419998434,33.42734099988729 L -116.61768699975522,33.42735399958747 L -116.61731999991804,33.42735100034844 L -116.61621900040649,33.427342999979544 L -116.61610399959989,33.427342999979544 L -116.61585299971614,33.427342999979544 L -116.61228799989124,33.42732099986432 L -116.60159599965561,33.42726199984145 L -116.59803199987687,33.42724199981848 L -116.59697599974254,33.4272360004411 L -116.593808000239,33.42721799961106 L -116.59275200010467,33.42721300027978 L -116.59266699978218,33.42721200023368 L -116.59004600032262,33.42720299981863 L -116.58192900012324,33.427176000372185 L -116.57922400038728,33.42716699995714 L -116.57868199967453,33.42716399981879 L -116.5770629996577,33.427156000349214 L -116.57652399998256,33.427156000349214 L -116.57634499982186,33.42715400025696 L -116.57277499976641,33.42713500028009 L -116.56153000010937,33.427084999773 L -116.5580489996616,33.42706899993448 L -116.55778299998542,33.42706899993448 L -116.55606800003812,33.427060999565526 L -116.55092400024239,33.42703700025743 L -116.54921000034119,33.42702899988848 L -116.54658099961341,33.4270160001883 L -116.53869500017407,33.42698000032681 L -116.53606700039171,33.42696799977341 L -116.535645999863,33.426965999681215 L -116.53438500016762,33.426960000303836 L -116.53396499968494,33.426958000211584 L -116.53216799955351,33.42695099988879 L -116.53127299964916,33.42694599965819 L -116.52319999968023,33.426908999750594 L -116.52050899969055,33.42689700009652 L -116.520087000015,33.42689299991207 L -116.51932900013321,33.42689099981982 L -116.51882200013517,33.42688799968147 L -116.5184009996064,33.42688699963537 L -116.51817600002232,33.426885000442496 L -116.51750399960986,33.42688200030415 L -116.51728000007193,33.42688100025799 L -116.51718800032592,33.42688100025799 L -116.51362899987839,33.42686400037337 L -116.50268199957458,33.42681299982013 L -116.50084800043481,33.426805000350555 L -116.49903400041876,33.4268729998891 L -116.49882299968164,33.4268790001658 L -116.49861099979779,33.42688899972762 L -116.49819000016834,33.42688999977372 L -116.49798100042278,33.42689199986597 L -116.49761199959408,33.42689299991207 L -116.49746600005585,33.42689399995817 L -116.49650499980584,33.42689600005042 L -116.49622899966857,33.42689900018877 L -116.49613699992256,33.426901000280964 L -116.49548599957916,33.42690999979669 L -116.4935359995867,33.42694100032696 L -116.49299099963491,33.42695099988879 L -116.49288800028097,33.42695299998104 L -116.4918279999622,33.42695400002714 L -116.4886510000436,33.42696799977341 L -116.48759299981708,33.426975000096206 L -116.48740900032504,33.426968999819564 L -116.48685900014272,33.426955000073235 L -116.48676100012,33.42695400002714 L -116.48667599979751,33.42695600011939 L -116.48645799963691,33.426960000303836 L -116.48580700019289,33.42697199995786 L -116.48559000007839,33.426978000234556 L -116.48545800028643,33.42698200041906 L -116.48506200001128,33.42699600016533 L -116.48493100026542,33.427001000395876 L -116.48363099967088,33.42700599972716 L -116.48139199984087,33.427015000142205 L -116.47078099974328,33.4270560002343 L -116.46724500035646,33.42707400016502 L -116.4613819997794,33.427096000280244 L -116.4437990001237,33.427168000003235 L -116.43794099977731,33.42719500034906 L -116.4342880003909,33.427208000049234 L -116.42332999957978,33.42725300032578 L -116.41967800023946,33.4272700002104 L -116.41961700012445,33.4272700002104 L -116.41943299973309,33.4272700002104 L -116.41937299966418,33.427271000256496 L -116.41929399961833,33.4272700002104 L -116.41905899957311,33.42727200030265 L -116.41898099957342,33.42727300034875 L -116.41715900008774,33.427279999772225 L -116.41430399972978,33.42729000023337 L -116.41169599997039,33.42730099984129 L -116.41006800043783,33.42730900021024 L -116.40987599967758,33.427311000302495 L -116.40966900002428,33.42731000025634 L -116.40905699968073,33.42731200034859 L -116.40885500025803,33.42731499958762 L -116.40759399966333,33.42731799972597 L -116.40381399981618,33.42733499961059 L -116.40255500021306,33.42734099988729 L -116.40146800044784,33.42734400002564 L -116.40123300040261,33.42734500007174 L -116.39820800029895,33.427357999771914 L -116.39712199968051,33.427363000002515 L -116.39341100031737,33.427377999794885 L -116.3822839998067,33.42742400011758 L -116.3785759996826,33.427441000002204 L -116.37802899963862,33.4274420000483 L -116.37639099964491,33.42745000041725 L -116.37584499964697,33.42745299965628 L -116.36935399978722,33.42747000044022 L -116.34988100020797,33.42752200014024 L -116.34339100039432,33.42754000007102 L -116.3391799995573,33.42759800004774 L -116.32654999988256,33.42777400007009 L -116.32587400018491,33.42778399963191 L -116.32233999999096,33.427832000046806 L -116.32222299999142,33.42783400013906 L -116.31795700021536,33.42781900034663 L -116.30907899999585,33.42779200000086 L -116.30480900003528,33.42777900030069 L -116.30042600025968,33.427765999701194 L -116.29410500014563,33.427838000323504 L -116.279542000363,33.428003999884766 L -116.2751419998034,33.42805799967698 L -116.26882199973545,33.42813899981502 L -116.26872299966669,33.42813899981502 L -116.26843199973695,33.42814299999952 L -116.26833599980654,33.42814500009172 L -116.26825999989904,33.42814600013787 L -116.26703600011126,33.42814800023007 L -116.26483600028115,33.428152000414514 L -116.25433900004481,33.428176999768766 L -116.25084099971235,33.428188000276066 L -116.25026300003736,33.428191000414415 L -116.25003999964622,33.42819199956119 L -116.24763999958628,33.428206000206785 L -116.24699899970403,33.42821000039123 L -116.2468409996124,33.428211999584164 L -116.24104300023424,33.42829099963001 L -116.23355100007853,33.428392999837115 L -116.23174000020083,33.42841800009069 L -116.22365100039332,33.42852999985968 L -116.21785400016194,33.42860999995156 L -116.21558299975561,33.42864099958251 L -116.20877299957425,33.4287360003662 L -116.20650300011334,33.42876800004319 L -116.20369600017023,33.42880700004309 L -116.19781299957026,33.42889100031948 L -116.19759100012453,33.428893000411676 L -116.19527799957996,33.42879600043511 L -116.1924769999136,33.42868199967461 L -116.18998400006154,33.42857900032067 L -116.18992399999257,33.42857500013622 L -116.18227099960689,33.42825999999906 L -116.18182599977001,33.42824200006828 L -116.17972099982427,33.428156999745795 L -116.17487400023487,33.42795700041529 L -116.16450499960604,33.42753099965597 L -116.16033599980653,33.427359999864166 L -116.15548900021713,33.427161999726536 L -116.15542800010206,33.42715999963434 L -116.15524899994136,33.42715200016471 L -116.1551889998724,33.427150000072515 L -116.1524789999059,33.42704199958865 L -116.14716999969568,33.426833999889254 L -116.14434699991409,33.42672800039696 L -116.14163799999369,33.4266270002359 L -116.13847799995972,33.42648700007504 L -116.1298630001773,33.42610999977671 L -116.12899799985775,33.42609900016879 L -116.12583699977768,33.42606500039949 L -116.12319400020289,33.42603800005372 L -116.11526499967994,33.42595799996178 L -116.1126230001513,33.42593199966211 L -116.11163200031655,33.425922000100286 L -116.10866200005125,33.425890999570015 L -116.1082269997762,33.425888000330986 L -116.1076720002626,33.42588900037714 L -116.1054789998559,33.425890999570015 L -116.09890000043464,33.42590300012341 L -116.0967080000741,33.42590800035396 L -116.09638899975249,33.42590800035396 L -116.09543499982533,33.42591000044621 L -116.09530800026397,33.425910999592986 L -116.09511700044919,33.425910999592986 L -116.09418799987628,33.425910999592986 L -116.09140400009449,33.425916999869685 L -116.0907280003969,33.42591899996194 L -116.09047599956767,33.425920000008034 L -116.08941300000993,33.425922000100286 L -116.08622699967628,33.425928000376985 L -116.08516500016458,33.42593199966211 L -116.08516300007238,33.424078999646156 L -116.08515799984178,33.4185219996906 L -116.08515699979569,33.41666999972074 L -116.08515599974953,33.41662600038967 L -116.08515499970343,33.41649699983674 L -116.08515599974953,33.416457999836894 L -116.08515399965734,33.41542399981779 L -116.0851510004183,33.41232900008333 L -116.0851510004183,33.41129900024873 L -116.08514800027996,33.40840299979868 L -116.08514200000326,33.40007799989985 L -116.08514099995716,33.399719999578394 L -116.08513999991101,33.39682600011986 L -116.08513799981881,33.395472999779145 L -116.08513499968046,33.39141799984088 L -116.08513499968046,33.39006600044564 L -116.08513299958821,33.388512999875104 L -116.08513000034918,33.383856000054436 L -116.08512900030308,33.382304000429315 L -116.08512700021083,33.37980400025447 L -116.08512400007254,33.375033999719335 L -116.08509899981897,33.372306999868215 L -116.08507699970374,33.36980999983166 L -116.08507300041862,33.36947899985603 L -116.08506099986522,33.368488000021216 L -116.08505799972687,33.36815900013778 L -116.08506900023411,33.36662500044349 L -116.08510400004951,33.362025999700165 L -116.08511699974969,33.36049400009807 L -116.08512800025699,33.359106999988114 L -116.08515999993404,33.354947999750436 L -116.08517199958806,33.35356299973273 L -116.08514900032606,33.3529389997351 L -116.08508600011879,33.351068999834524 L -116.08506500004967,33.35044599988305 L -116.08506199991132,33.35037100002171 L -116.08506500004967,33.34993199956216 L -116.08507599965765,33.348396999821716 L -116.08508099988819,33.34788599963923 L -116.08509899981897,33.34644299964475 L -116.08515299961118,33.34211399966142 L -116.08517000039518,33.34084300040422 L -116.08516800030293,33.340671999713095 L -116.08516400011848,33.34037999973725 L -116.08515199956508,33.33950599990203 L -116.08514800027996,33.33921600001844 L -116.08507100032637,33.336811999774 L -116.08483999956627,33.329599999940115 L -116.08476299961274,33.327195999695675 L -116.08470000030474,33.325251999979855 L -116.08467800018951,33.32453400014407 L -116.08454100016701,33.31942099997923 L -116.08448999961377,33.31747800030951 L -116.08448700037474,33.31736100030997 L -116.08443899995984,33.31650200026718 L -116.08427499959151,33.31357400014002 L -116.08422099979924,33.31259900014379 L -116.08420800009907,33.312368000283016 L -116.08425599961464,33.3110200001729 L -116.08429300042161,33.3100139996464 L -116.08409600033013,33.306285000352545 L -116.0840160002382,33.30476300031228 L -116.0840150001921,33.30470799957459 L -116.08399800030742,33.30388000006201 L -116.08394999989252,33.30139899986398 L -116.08393500010015,33.30057200039755 L -116.0839319999618,33.30047799966002 L -116.08390200037701,33.29834900040612 L -116.08386000023876,33.29534699956446 L -116.08373099968583,33.29168399971684 L -116.08365399973229,33.28946499990985 L -116.08364800035491,33.289308999910475 L -116.08363999998596,33.288518000305544 L -116.08361100044726,33.28567899978606 L -116.08360300007837,33.28473500032004 L -116.08360200003222,33.284649999997555 L -116.08351899980198,33.28371700013952 L -116.08326799991823,33.28086700001211 L -116.08325600026416,33.28066499969003 L -116.08319900033354,33.279646000362675 L -116.08315700019534,33.27772900009336 L -116.08303099978076,33.27197700013852 L -116.08298999968872,33.2700619999614 L -116.08298799959647,33.27001100030748 L -116.0829339998042,33.2683829998756 L -116.0828620000812,33.26620200002236 L -116.08277799980482,33.26334599961825 L -116.08273000028925,33.2616689996247 L -116.08268900019715,33.260302999583814 L -116.08256900005927,33.2562109997379 L -116.08253100010552,33.25484799983536 L -116.08245200005973,33.25213899991496 L -116.08239199999076,33.25004100029196 L -116.08218899962259,33.244017000384304 L -116.08218799957649,33.243984999807935 L -116.08209799992272,33.24131099970293 L -116.08209199964602,33.241140999957224 L -116.08207299966915,33.24005700033035 L -116.08200700022286,33.2362989996991 L -116.08198600015373,33.235047000418774 L -116.08196400003851,33.23382799996227 L -116.08190099983125,33.23017100039141 L -116.08187999976212,33.228952999981004 L -116.08187799966993,33.228848999681645 L -116.08185100022342,33.22730000019493 L -116.08174799997016,33.22137300026378 L -116.08135499983337,33.1986360003512 L -116.0812250001336,33.191056999780756 L -116.0812169997647,33.18870500013571 L -116.08119299955723,33.18164900030115 L -116.08118500008766,33.179297999802884 L -116.0811829999954,33.17884499959712 L -116.08117899981096,33.177485999879025 L -116.08117799976486,33.177033999719356 L -116.08116700015688,33.17378299998552 L -116.08113400043374,33.164031999976885 L -116.08112600006484,33.16140600028672 L -116.08112500001869,33.16100599982707 L -116.08112500001869,33.160782000289146 L -116.08112399997259,33.160719000081826 L -116.08112399997259,33.16053399964443 L -116.08112399997259,33.16047300042868 L -116.08112399997259,33.16039799966802 L -116.08112299992649,33.160322999806624 L -116.08108700006494,33.154815000312055 L -116.08097800043436,33.13784500014668 L -116.08094199967348,33.13218900012231 L -116.08093999958129,33.13197300005396 L -116.08095100008853,33.13051100008266 L -116.08099300022673,33.12547900005586 L -116.08099700041123,33.12503000003454 L -116.08110199985737,33.12380600024676 L -116.08108600001884,33.11981499966254 L -116.08103799960395,33.107849000031365 L -116.08102299981158,33.10386199963165 L -116.08102599994993,33.102478999706136 L -116.0810409997423,33.0983370002524 L -116.0810459999729,33.09695699956592 L -116.0810459999729,33.09685100007363 L -116.0810459999729,33.09671800023557 L -116.0810459999729,33.09653299979817 L -116.08105000015735,33.09642800035198 L -116.08106399990362,33.09619400035291 L -116.08106499994977,33.096122999776696 L -116.08108499997275,33.095209999941574 L -116.08109200029554,33.09490800040396 L -116.0810940003878,33.09475899982806 L -116.08109300034164,33.09359800024754 L -116.08109200029554,33.08967500010124 L -116.08109300034164,33.08838399992169 L -116.08109200029554,33.08836700003707 L -116.08109100024944,33.085002000442046 L -116.08109000020329,33.07490999999658 L -116.08109000020329,33.074833000042986 L -116.08437799984478,33.07481900029666 L -116.08579899972403,33.074806999743316 L -116.09006500039942,33.074772999974016 L -116.09134600011777,33.07476399955897 L -116.09148800037087,33.07476300041219 L -116.09384000001597,33.07474400043532 L -116.09772600025468,33.0747139999512 L -116.10089899998883,33.07468799965153 L -116.10100100019599,33.07468799965153 L -116.10325199968003,33.074669999720754 L -116.10326200014117,33.07412599981507 L -116.10329299977207,33.07249700023641 L -116.10330400027937,33.07195400037688 L -116.10330999965674,33.071612999940044 L -116.10330600037156,33.06977599976261 L -116.10330500032546,33.069217000064555 L -116.10329599991042,33.06522899961868 L -116.10325099963387,33.045054000042114 L -116.1032379999337,33.038801000365936 L -116.1032369998876,33.03833100027549 L -116.1032379999337,33.03812799990732 L -116.1032379999337,33.03809900036862 L -116.10324100007205,33.03740499984093 L -116.1032420001182,33.03717500002631 L -116.10324000002595,33.03692300009641 L -116.1032369998876,33.036638999590195 L -116.10322200009517,33.03503200012676 L -116.10321699986463,33.0344969997368 L -116.10321299968018,33.034127999807424 L -116.1032020000722,33.03302300011143 L -116.10319899993385,33.03265500022815 L -116.10313599972659,33.02613399988422 L -116.10313000034921,33.025513000025 L -116.10304199988838,33.0135559999095 L -116.1029900001883,33.00657099975189 L -116.10294199977346,33.00005100035344 L -116.10294599995791,32.997886000338724 L -116.10295999970418,32.99139100029447 L -116.10296499993478,32.989227000325855 L -116.10296900011923,32.9869699996658 L -116.1029819998194,32.980201999622636 L -116.10298700005,32.977945999908 L -116.1029880000961,32.977043999680916 L -116.10299300032665,32.97434200008331 L -116.1029950004189,32.97344199994836 L -116.1029950004189,32.97331799962603 L -116.10299599956568,32.972948999696655 L -116.10299699961183,32.97282800041194 L -116.10299799965793,32.97113599972664 L -116.10300299988847,32.9660619995617 L -116.10300600002682,32.964370999821824 L -116.10300800011908,32.96248600012888 L -116.10301300034968,32.95682900005835 L -116.10301599958865,32.95494599955828 L -116.1030179996809,32.95423399999913 L -116.1030239999576,32.95209800042244 L -116.10302700009595,32.95138700001007 L -116.1030290001882,32.95053600033617 L -116.10303599961168,32.947988999792585 L -116.10303899975003,32.94714000021088 L -116.10304299993447,32.9454480004249 L -116.1030579997269,32.940371000121615 L -116.10306299995744,32.93868000038174 L -116.10306299995744,32.93854100026698 L -116.10306400000354,32.93834200008331 L -116.10306400000354,32.93812399992271 L -116.10306400000354,32.93798599985405 L -116.1030650000497,32.937422999971545 L -116.10306800018805,32.935733000277764 L -116.10307000028024,32.93517399968039 L -116.10307000028024,32.9350559996347 L -116.10307399956537,32.9327490002662 L -116.10308900025711,32.92547999960237 L -116.1030949996345,32.92305800032648 L -116.10309599968059,32.92279299979714 L -116.10310300000339,32.91926900006433 L -116.10312800025696,32.90790200017722 L -116.10313699977269,32.90411500000732 L -116.10313899986494,32.90272699985121 L -116.10314800027993,32.898564000328406 L -116.10315100041828,32.897273000148914 L -116.10315100041828,32.897178000264546 L -116.10315799984181,32.89352700007106 L -116.10318100000313,32.88257599958274 L -116.10319000041812,32.878928000426924 L -116.10319099956496,32.87809199964613 L -116.10319699984166,32.875586000093904 L -116.10319899993385,32.87505499988839 L -116.10297899968106,32.87484600014284 L -116.10287700037321,32.874749000166275 L -116.10288299975059,32.87259699985174 L -116.10288499984284,32.87160499997083 L -116.10288900002729,32.87028800039093 L -116.10270899982044,32.86445999962933 L -116.10264799970537,32.861755999939476 L -116.10261299989003,32.860200000129964 L -116.10257700002848,32.8586380000437 L -116.10257399989013,32.85847399967537 L -116.10256600042055,32.858122999676766 L -116.1025580000516,32.85775899997793 L -116.10262500044337,32.85707299981914 L -116.10266000025877,32.856726000004926 L -116.10265800016651,32.856709000120304 L -116.10267099986669,32.85652100044388 L -116.10271199995879,32.8559559995698 L -116.10272699975121,32.85576999998557 L -116.10280199961255,32.85483700012753 L -116.1030310002804,32.85236799958358 L -116.10313799981878,32.851230000164435 L -116.1032080003489,32.849551000078634 L -116.1034970001864,32.843609000355116 L -116.10354699979416,32.84213699992267 L -116.10366499983985,32.8387239999127 L -116.10363800039335,32.838596000305245 L -116.1036340002089,32.83857200009777 L -116.10360000043966,32.838353999937226 L -116.10356100043981,32.8381149997075 L -116.10353800027843,32.83796399993872 L -116.10353700023234,32.837947000054044 L -116.10353700023234,32.8379019997775 L -116.10353800027843,32.83788699998513 L -116.10353700023234,32.83782599987006 L -116.1034859996791,32.83391800041545 L -116.1034909999097,32.83134699966433 L -116.10350299956377,32.82611800044543 L -116.10360299967869,32.815203999864764 L -116.10363100007055,32.81172899969363 L -116.10366599988595,32.807430000194415 L -116.10370099970135,32.805190000318305 L -116.1037029997936,32.80492599983506 L -116.10371100016249,32.80413300013788 L -116.10371400030084,32.80387099974689 L -116.10371500034694,32.803673999655416 L -116.10372099972432,32.803085000372505 L -116.10372399986267,32.80288900032713 L -116.10372599995492,32.80247900030565 L -116.10373799960894,32.80128300001047 L -116.10373699956284,32.801253000425675 L -116.10373000013936,32.80084599964323 L -116.10368900004727,32.79884600004294 L -116.1036609996554,32.79747499977145 L -116.1034630004171,32.79285699995063 L -116.10340400039428,32.79146799974842 L -116.10338200027905,32.79086399977382 L -116.10337600000236,32.79075900032768 L -116.10337499995626,32.79058400035137 L -116.10337199981791,32.79011400026093 L -116.10337099977181,32.78975099970893 L -116.10337199981791,32.78947499957161 L -116.10343299993298,32.78900200024219 L -116.10361800037037,32.78758499964806 L -116.10368099967837,32.787114999557616 L -116.1036199995633,32.785305999772106 L -116.10352200043991,32.78234499992186 L -116.10352000034771,32.77988099960851 L -116.10351900030162,32.778071999823 L -116.10351700020937,32.774911999789026 L -116.10351700020937,32.774749000366114 L -116.10357900037053,32.769102999903566 L -116.10356999995548,32.765433999779304 L -116.10356399967878,32.76227499979149 L -116.10356299963269,32.761333000417665 L -116.10356299963269,32.76119999968029 L -116.10353800027843,32.75850999973676 L -116.10352999990954,32.75756900040909 L -116.10352100039381,32.756655999674706 L -116.10349600014024,32.75392200040005 L -116.10348799977135,32.75301099975786 L -116.10348799977135,32.75294000008097 L -116.10352799981729,32.752891999666076 L -116.10347600011727,32.75227700008355 L -116.10350000032474,32.75052400018251 L -116.10350799979432,32.75014899997643 L -116.10351099993267,32.75005800027657 L -116.10323399974925,32.74152199964061 L -116.10314099995713,32.738647000159006 L -116.10313999991104,32.73861699967483 L -116.10313899986494,32.737183000095456 L -116.10314200000329,32.7328000003198 L -116.10314400009548,32.731340000440696 L -116.10314600018773,32.72888799978142 L -116.10314900032608,32.726500000274825 L -116.10564799955552,32.72649399999813 L -116.10564000008588,32.724031999777026 L -116.10563399980919,32.72158400020152 L -116.10563399980919,32.72156999955587 L -116.10563799999369,32.720412000113754 L -116.10565199973996,32.71689599985058 L -116.10565699997056,32.71572499980897 L -116.10565599992441,32.71566199960165 L -116.10565499987831,32.71547600001742 L -116.10565699997056,32.71541499990235 L -116.10565599992441,32.715240999972195 L -116.10566400029336,32.711971000261485 L -116.10568999969371,32.7016479999553 L -116.10570000015485,32.69820799959956 L -116.10569900010876,32.69687700027339 L -116.1056980000626,32.69288399959697 L -116.1056980000626,32.69155500036305 L -116.10569599997041,32.69020500016069 L -116.10569299983206,32.68615499955365 L -116.1056919997859,32.68497900018076 L -116.10569399987816,32.6848060002967 L -116.1057050003854,32.6834139999562 L -116.10574300033915,32.67923699978775 L -116.10575600003932,32.67784700043876 L -116.10575600003932,32.677650000347285 L -116.10575800013157,32.67705900007286 L -116.10575800013157,32.67700200014224 L -116.10575499999322,32.67686300002748 L -116.10574999976262,32.6767070000281 L -116.10573700006245,32.67624500030655 L -116.105732999878,32.676091000399424 L -116.10571700003948,32.67556999975574 L -116.10570000015485,32.67496299964279 L -116.1057040003393,32.674888999827544 L -116.10575700008548,32.67401099980782 L -116.10578899976247,32.67349300020186 L -116.10578899976247,32.673094999834404 L -116.10578899976247,32.671770999931766 L -116.10578999980862,32.671564000278465 L -116.10578999980862,32.67149499979445 L -116.10579199990082,32.66894399996568 L -116.10579199990082,32.6687190003816 L -116.10579399999307,32.666606000066906 L -116.10579700013142,32.66488499984291 L -116.10589900033858,32.66484499979697 L -116.10617300038365,32.6647550001432 L -116.10626500012961,32.66472899984353 L -116.10616199987635,32.664374999706524 L -116.10608099973831,32.664086999915185 L -116.10590199957761,32.66361199959414 L -116.10584899983144,32.6633189995722 L -116.10584399960089,32.663294000218 L -116.10578699967027,32.66298100017309 L -116.10578200033899,32.66295900005787 L -116.10578200033899,32.66293199971204 L -116.1057810002929,32.662454000152024 L -116.10577700010845,32.661101999857465 L -116.10576200031602,32.655537000432275 L -116.10575800013157,32.653682000324125 L -116.10575700008548,32.653278999726126 L -116.10575700008548,32.65207399991522 L -116.10575800013157,32.65167400035489 L -116.10575700008548,32.65140399959495 L -116.10576100026992,32.65059800019759 L -116.10576200031602,32.650329000383124 L -116.10576300036212,32.64994299966975 L -116.1057669996473,32.648784000181536 L -116.1057689997395,32.648399000413576 L -116.10578499957802,32.64824599965323 L -116.10583700017736,32.647792000300626 L -116.10585400006204,32.64764099963247 L -116.10585300001588,32.64750899984051 L -116.10585300001588,32.64715799984185 L -116.10584000031571,32.64712099993426 L -116.10580300040812,32.647015999588746 L -116.10579700013142,32.646997999658026 L -116.10577700010845,32.6469419997735 L -116.10571700003948,32.64677400012005 L -116.1056980000626,32.64671900028168 L -116.10572899969355,32.64663399995919 L -116.10577700010845,32.64650300021333 L -116.10582200038499,32.64638200002935 L -116.10585400006204,32.64629799975296 L -116.10584200040796,32.6461199996383 L -116.10580799973934,32.645586000193816 L -116.10579700013142,32.645404999940865 L -116.10579399999307,32.64535600037914 L -116.10579099985472,32.645243999710885 L -116.1057739999701,32.64475100035844 L -116.1057689997395,32.64458699999011 L -116.1057679996934,32.64455000008252 L -116.10576599960115,32.6444930001519 L -116.1057689997395,32.64407299966928 L -116.10576999978565,32.64397100036143 L -116.10578499957802,32.642126999861205 L -116.10579099985472,32.64151300032478 L -116.10583800022351,32.6413459998181 L -116.10586499966996,32.641249999887634 L -116.1059570003153,32.64093199961212 L -116.10609100019946,32.64046399961393 L -116.1061660000608,32.64020200012226 L -116.10618399999157,32.637545999947974 L -116.10623999987604,32.6295780003245 L -116.10625899985291,32.62692300019637 L -116.10626199999126,32.62635099989876 L -116.10627199955309,32.62506199981152 L -116.10624900029109,32.62464000013597 L -116.10621799976087,32.62407099997671 L -116.10621499962252,32.6231479996805 L -116.10621100033734,32.62171200000887 L -116.10620900024514,32.62038600001392 L -116.10620800019899,32.619538999625206 L -116.1062060001068,32.61946499980996 L -116.10619699969175,32.61926799971849 L -116.10617499957652,32.61867600029723 L -116.10616800015305,32.61848000025185 L -116.10858500009766,32.618288000390976 L -116.11040100020597,32.61814600013787 L -116.11463300021273,32.617814000116084 L -116.1151539999571,32.617774000070085 L -116.11546800004811,32.61774899981651 L -116.11646900034407,32.61767099981682 L -116.11711799969589,32.6176200001629 L -116.11884500019659,32.617484000186494 L -116.12305700018038,32.61715100011861 L -116.12310000036467,32.617143999795815 L -116.12583999991602,32.61693500005026 L -116.14495299998094,32.61542599971017 L -116.14498799979634,32.61542299957182 L -116.14716500036445,32.61525099973392 L -116.15738799965641,32.61444300024431 L -116.15912199958058,32.6143009999912 L -116.16432899958363,32.613882999600776 L -116.16606200036097,32.61374400038534 L -116.16612999989957,32.613739000154794 L -116.16692399964285,32.61367499990138 L -116.16950600000189,32.613469000294174 L -116.17263799964394,32.61321800041043 L -116.17332099966438,32.613163999718836 L -116.1733930002867,32.613158000341514 L -116.18110399974978,32.61253500038998 L -116.18261400013597,32.61241700034435 L -116.18570899987043,32.61217600002243 L -116.18657200009767,32.61210500034554 L -116.18689899988891,32.61207900004587 L -116.18720599965712,32.612053999792295 L -116.18751000018631,32.61202999958488 L -116.19182100023892,32.611685999909014 L -116.19223400039874,32.61165200013977 L -116.19616199987638,32.61133900009486 L -116.19780099991618,32.611208000348995 L -116.19929599961068,32.61108900025721 L -116.19966500043938,32.61105999981919 L -116.2004309997908,32.61099899970412 L -116.20244900022112,32.61083800037346 L -116.20306199971151,32.61078899991247 L -116.20358799968642,32.61074699977428 L -116.20468800005114,32.61065700012051 L -116.20798900029212,32.61039399968337 L -116.20908999980361,32.61030700016795 L -116.20944299989452,32.610278999776085 L -116.21046400021339,32.610198999684144 L -116.21078699982013,32.610173000283794 L -116.2110179996809,32.61015500035302 L -116.22288200000429,32.60921700026438 L -116.22668199987436,32.608915999873545 L -116.2441390000148,32.607486999625394 L -116.24486500021953,32.60742999969477 L -116.25891299963519,32.606318999722134 L -116.26116900024914,32.60613999956138 L -116.2698310004003,32.605451000163555 L -116.27025800030646,32.60541700039431 L -116.27092000025777,32.60536299970272 L -116.27274900006626,32.605218000210584 L -116.27811200006869,32.60479000025833 L -116.27836199990634,32.60477000023536 L -116.27968199962453,32.604664999889906 L -116.2807070001279,32.60458299970571 L -116.28689999973517,32.60409100039942 L -116.28875399979722,32.60393999973127 L -116.2916599998091,32.60371300005494 L -116.29728800034093,32.603253000425696 L -116.30109499963447,32.60297500019618 L -116.30230699976818,32.60288100035791 L -116.30376200031606,32.60277800010465 L -116.30583299959324,32.60262600028972 L -116.30716099968038,32.602526000174805 L -116.31050700019784,32.60227400024496 L -116.31255200007473,32.60212000033778 L -116.31437200036748,32.60196899966962 L -116.32290399991962,32.60121900015679 L -116.3271869995803,32.60085599960473 L -116.3339419999233,32.600340000090966 L -116.33572500030846,32.60019499969951 L -116.33990999994649,32.5998570003004 L -116.34810300005336,32.59919000011848 L -116.35097700038824,32.598960000303805 L -116.35424199986835,32.59869599982056 L -116.3550310002804,32.5986319995672 L -116.36133399956441,32.59812200033008 L -116.37267400000508,32.597190999664974 L -116.37575900017771,32.596946000057926 L -116.37887199984289,32.59670299964375 L -116.37906699984211,32.596684999713034 L -116.37951099963288,32.59664699975929 L -116.38562300000143,32.59615899973812 L -116.38975299980109,32.59581800020061 L -116.3900609996154,32.59579299994704 L -116.39016199977641,32.59578499957814 L -116.39113499968045,32.59570500038552 L -116.39146000027876,32.59567900008585 L -116.39590900040002,32.59531500038702 L -116.39628899993738,32.59528399985675 L -116.39689900018868,32.59523400024898 L -116.401592999917,32.5948489995817 L -116.40244799977535,32.594789999558884 L -116.4055210002939,32.59453699958294 L -116.40916300007234,32.59423600009137 L -116.41127100015649,32.59406300020737 L -116.413505999802,32.593877999769916 L -116.41421900030656,32.5938189997471 L -116.41635900006776,32.593641999678596 L -116.41707299971915,32.59358399970188 L -116.41868999964373,32.59345099986382 L -116.41912700001103,32.593415000002324 L -116.42722200009518,32.5927499999126 L -116.43212699966125,32.592348000260074 L -116.43528399955687,32.59208799996128 L -116.43646800019803,32.591990999984716 L -116.43940799997921,32.59176200021619 L -116.43951100023241,32.59175399984724 L -116.43967799983977,32.59174100014707 L -116.43974200009319,32.59173599991652 L -116.44591999990803,32.59124799989536 L -116.45384700033878,32.59072199992039 L -116.45447000029026,32.590671000266525 L -116.45527100035633,32.59060700001311 L -116.45818599988394,32.590375000106235 L -116.46686299982753,32.58968399971684 L -116.47120100022596,32.58933799994878 L -116.47847999955229,32.588591999721075 L -116.4870200003727,32.58785700000061 L -116.49553800017856,32.58718799972644 L -116.49587400038479,32.58715900018774 L -116.49811899959212,32.58697899998094 L -116.50151799985576,32.586677000443274 L -116.50586000043864,32.5862909997299 L -116.50665500022802,32.586225000283605 L -116.510209000445,32.58591600042314 L -116.51453999962126,32.58554100021706 L -116.5151950001491,32.585486000378694 L -116.51888400029634,32.585175999572755 L -116.52338800025598,32.58479800012765 L -116.53197100036135,32.58412899985353 L -116.53561800037039,32.583844000200486 L -116.53565200013963,32.58384100006214 L -116.5357550003929,32.58383299969324 L -116.5357900002083,32.58383099960099 L -116.53777399997011,32.58367599964771 L -116.53885100017351,32.58359200027064 L -116.53964900010124,32.58353000010948 L -116.54055399956741,32.58345900043258 L -116.54071199965904,32.58344599983309 L -116.54511500035693,32.5831089995807 L -116.5481310000456,32.58287799971998 L -116.54912900020315,32.58279500038901 L -116.5566590003126,32.58211799974595 L -116.55767500040093,32.58203300032278 L -116.55913600032613,32.58191500027709 L -116.56361900021665,32.581551999725036 L -116.56518499958804,32.581426000209774 L -116.56623799958396,32.58133899979504 L -116.56758399960188,32.58123000016445 L -116.57370899967054,32.58073399977434 L -116.57434200008322,32.58068200007432 L -116.57480199971246,32.58064400012057 L -116.58222000005293,32.58002700044574 L -116.58336399974877,32.57993199966211 L -116.59072300006636,32.57931900017178 L -116.592127000061,32.57920300021834 L -116.59670099965138,32.57883700042726 L -116.5992660001258,32.578633000012985 L -116.60049300005187,32.57853099980582 L -116.60266400034328,32.57835199964512 L -116.60740699963327,32.57796799992332 L -116.60798800034593,32.57792099955452 L -116.60906200041097,32.577834000039104 L -116.61120300021827,32.5776569999706 L -116.61645899978299,32.5772380004334 L -116.61652199999025,32.57723300020285 L -116.6176309998707,32.57714399969586 L -116.6182400000759,32.577094000088096 L -116.61973099958595,32.57697199985796 L -116.62010199960758,32.57694100022701 L -116.62128400015644,32.57682000004303 L -116.6238060004465,32.57661200034357 L -116.62536799963345,32.57648299979064 L -116.62628999988357,32.576406999883204 L -116.62641600029815,32.576396000275224 L -116.62653799962897,32.57638599981408 L -116.62721899955716,32.57632999992961 L -116.62745699974073,32.57631099995274 L -116.62862899982844,32.576213999976176 L -116.63184099956243,32.57594900034616 L -116.63715600004934,32.57551099993276 L -116.6385309996059,32.575397000071575 L -116.6422930004216,32.57508900025721 L -116.64567800003965,32.574811000027694 L -116.64824699979914,32.57460100023604 L -116.65419799993771,32.57411400026098 L -116.65564900030108,32.57399400012304 L -116.65675399999708,32.57390300042317 L -116.65883099955096,32.57373199973205 L -116.66735200039449,32.57302699959638 L -116.6733720001177,32.57252900001339 L -116.67588800013107,32.57231900022174 L -116.6769329997581,32.572230999760905 L -116.68407299986899,32.57163099997075 L -116.68439400028285,32.57160399962493 L -116.68850099992119,32.57125999994906 L -116.68937099957196,32.57118800022607 L -116.68977600026216,32.57115399955751 L -116.69036000021379,32.57110499999578 L -116.69077300037361,32.57107000018044 L -116.69093799988877,32.57105699958089 L -116.69256000004395,32.570921999650636 L -116.69339599992543,32.57085200001984 L -116.69946400006353,32.5703460000679 L -116.70009600043005,32.57029400036788 L -116.70577599976252,32.56980899958569 L -116.70754699959434,32.569663000047456 L -116.70863000007444,32.56957200034759 L -116.71716699985711,32.5688450000967 L -116.72008799966142,32.56859999959033 L -116.72430199973746,32.56825199973008 L -116.7257069997782,32.56813599977664 L -116.72851699985961,32.56790499991587 L -116.7327330000279,32.567558000101656 L -116.73426200039097,32.567431999687074 L -116.73553599978652,32.56732700024094 L -116.73595300013079,32.56729200042554 L -116.73694900019615,32.56720900019525 L -116.73895700016539,32.567042999734724 L -116.74123399994909,32.566852999966045 L -116.74551599956368,32.566493999598435 L -116.74747600001734,32.566330000129426 L -116.7497959999854,32.5661360001763 L -116.75407600040705,32.56577699980875 L -116.75530400037928,32.565673999555486 L -116.75599800000765,32.56561599957877 L -116.75661999991303,32.56556399987875 L -116.75729599961068,32.56550699994813 L -116.76271699958983,32.56505099960401 L -116.76703800010358,32.564687999951275 L -116.77135899971802,32.56432400025244 L -116.77185900029258,32.5642830001604 L -116.77567600004733,32.56396199974654 L -116.77996399993862,32.563603000278306 L -116.78038799970636,32.56356700041681 L -116.78254600029766,32.5633860001638 L -116.78426699962228,32.5632419998185 L -116.78527999957231,32.56315700039528 L -116.7867479998203,32.56303300007295 L -116.78681800035042,32.56302599975015 L -116.78857100025141,32.56288000021192 L -116.78891599997337,32.5628509997739 L -116.79282999970468,32.562518999752115 L -116.79383800032343,32.56243400032889 L -116.79472299976658,32.56235899956823 L -116.79605099985372,32.562245999753145 L -116.79708900005727,32.56215800019163 L -116.79743900000983,32.56212899975361 L -116.79968300007039,32.56194000003103 L -116.80135499983334,32.56179899982402 L -116.8056199995633,32.561438000263536 L -116.80821999985307,32.56121900005684 L -116.8098100003312,32.56108300008043 L -116.81400000019983,32.56072399971288 L -116.81675999977415,32.56048799962156 L -116.81788300030018,32.56039299973719 L -116.81818699993005,32.56036700033684 L -116.82125400017196,32.56010599999195 L -116.82224099982227,32.56002199971556 L -116.82269199993584,32.55998399976181 L -116.82355600020918,32.559910999992724 L -116.82410600039157,32.559864999670026 L -116.8252920002256,32.559764999555114 L -116.82714200010321,32.559608999555735 L -116.82810100026092,32.55952900036311 L -116.82900499968093,32.559452999556356 L -116.831465999856,32.559245999903 L -116.83381800040036,32.559047999765426 L -116.83585299981604,32.55887599992752 L -116.84023999977614,32.55850599995199 L -116.8412070003028,32.55842499981395 L -116.84234399967579,32.558328999883486 L -116.84462699973619,32.55813599997646 L -116.84709500023405,32.55792800027706 L -116.8490139996963,32.557766000000925 L -116.8508699998506,32.557610000001546 L -116.85260599986697,32.557463000417215 L -116.85778799961645,32.557026000049916 L -116.85939499997926,32.556891000119606 L -116.86217499957655,32.55665600007438 L -116.86580199956262,32.55635000035227 L -116.86656200043592,32.55628600009885 L -116.87094800034993,32.555912999985026 L -116.87307100022645,32.555731999732075 L -116.87505299989601,32.55556400007862 L -116.87533400026388,32.555539999871144 L -116.87972000017783,32.55516699975726 L -116.8808439998507,32.55507099982685 L -116.88849300005188,32.554421000428874 L -116.89282500017356,32.554052999646274 L -116.89287899996583,32.55404800031499 L -116.89724499985681,32.55367700029336 L -116.90092000025777,32.553365000294605 L -116.90483099985073,32.55303300027282 L -116.91461899976701,32.55220299976867 L -116.91788200005425,32.551926999631405 L -116.91988199965454,32.55176200011624 L -116.92329299957225,32.55147799961003 L -116.92596200034603,32.55124699974931 L -116.92802300006139,32.551069999680806 L -116.93054600039756,32.55085599970465 L -116.93648900016717,32.55035600002941 L -116.93812199993033,32.55021799996081 L -116.93835299979105,32.55019799993778 L -116.93859900034357,32.55017799991481 L -116.93889799974284,32.55015199961514 L -116.93898600020373,32.55014500019166 L -116.93926599962617,32.55012099998419 L -116.93995299983106,32.55006700019197 L -116.94081399996611,32.54999400042283 L -116.94384600039257,32.549736000216285 L -116.94593499960052,32.54955900014778 L -116.94946100032485,32.54926600012584 L -116.95378700016988,32.54890599971219 L -116.95811199996876,32.5485460001978 L -116.9624369997677,32.548185999784096 L -116.96676000037371,32.54781999999307 L -116.96773999970117,32.547736999762776 L -116.96965699997054,32.54757500038602 L -116.97108300008034,32.54745400020198 L -116.97540599978703,32.54708800041095 L -116.97972900039304,32.5467229997667 L -116.98405300014582,32.54635599992952 L -116.9844509996139,32.54632300020637 L -116.98837599985245,32.54599000013843 L -116.99269899955914,32.5456240003474 L -116.99702300021124,32.545257999657 L -116.99725400007202,32.545237999634026 L -117.00010999957681,32.54499199998088 L -117.00134499987183,32.54488500044249 L -117.00566700043169,32.54451200032861 L -117.0086749997514,32.544252000029815 L -117.00998900009222,32.54413900021473 L -117.01153300024771,32.54400600037667 L -117.01456299968265,32.54373799970898 L -117.01901299985002,32.54335900021772 L -117.0229220002501,32.54301000031131 L -117.02666400014346,32.542681000427876 L -117.02682999970472,32.542666999782284 L -117.02693900023462,32.54265700022046 L -117.02707400016493,32.54264499966706 L -117.02715400025687,32.542638000243585 L -117.02722800007211,32.542631999966886 L -117.02840400034432,32.542528999713625 L -117.02858100041283,32.5425129998751 L -117.02893999988106,32.54248200024415 L -117.0290260002497,32.542473999875256 L -117.02924899974153,32.54245499989838 L -117.02936799983331,32.54244400029046 L -117.02940699983316,32.54244100015211 L -117.0294530001558,32.542436999967606 L -117.0294869999251,32.54243399982926 L -117.02951200017861,32.54243199973706 L -117.02954499990182,32.54242899959871 L -117.02957699957881,32.54242600035968 L -117.02959999974019,32.54242400026743 L -117.02963599960168,32.54242100012908 L -117.0296670001319,32.54241799999073 L -117.02972099992417,32.54241299976019 L -117.02982500022352,32.54240400024446 L -117.02988100010805,32.542399000013916 L -117.02999600001533,32.54238899955271 L -117.0301319999918,32.54237799994479 L -117.03039799966791,32.54235399973737 L -117.0304829999904,32.54234700031384 L -117.03053299959822,32.542342000083295 L -117.03057399969032,32.542338999944945 L -117.03062600028966,32.542333999714344 L -117.03224400026039,32.54219300040671 L -117.03518400004151,32.541941999623646 L -117.03632200035997,32.54184599969318 L -117.03655200017465,32.54182599967021 L -117.03924500025653,32.54160200013223 L -117.03996800032292,32.541536999832715 L -117.04086100013501,32.541458999833026 L -117.04153899992485,32.54140099985631 L -117.04195700031528,32.54136600004091 L -117.04516900004927,32.541093000042 L -117.04947800000969,32.54072600020481 L -117.05381999969319,32.54035500018318 L -117.05816200027607,32.53998400016155 L -117.05836599979102,32.53996600023078 L -117.06199900005379,32.53966099965544 L -117.0621360000763,32.539650000047516 L -117.0624829998905,32.5396209996095 L -117.06258700018986,32.53961200009377 L -117.06263599975154,32.53961200009377 L -117.06342300007134,32.539544999702 L -117.06578600022368,32.5393450003715 L -117.06673199978195,32.53926600032571 L -117.07112199988035,32.538884999842935 L -117.07543800016356,32.5385099996368 L -117.07975400044671,32.538135000330044 L -117.0840699998306,32.53776000012397 L -117.08839000029826,32.53738599996399 L -117.09270999986654,32.53701099975791 L -117.09464700015889,32.5368430001044 L -117.0970300003342,32.53663599955178 L -117.09932700014093,32.536437000267426 L -117.10134999990254,32.53626200029112 L -117.10163200031656,32.5362380000837 L -117.10571399970127,32.53589200031564 L -117.11007800039937,32.535521000293954 L -117.114441000152,32.53515100031848 L -117.11880499995073,32.534781000342946 L -117.11887899976597,32.53477400002015 L -117.11906300015733,32.53475900022772 L -117.12017400012996,32.53466600043561 L -117.12128199996431,32.534573999790325 L -117.12276600005083,32.53444900032116 L -117.12309299984202,32.53442099992924 L -117.12418900002228,32.53432600004493 L -117.12427000016032,32.53431899972213 L -117.12440400004454,32.534307000068054 L -117.12464500036646,32.53432199986048 L -117.12481400006601,32.534333000367724 L -117.12506499994976,32.534333000367724 L -117.12610300015331,32.534332000321626 L -117.14186500036942,32.53323199995691 L -117.18915300021075,32.52993099971593 z" /></g></svg>